<svg width="80" height="84" viewBox="0 0 80 84" fill="none" xmlns="http://www.w3.org/2000/svg">
<g clip-path="url(#clip0_123_1974)">
<path d="M40 17.5C24.6673 17.5 11.8533 28.2781 8.72827 42L38.5 30.5L46 32.5L71.2718 42C68.1468 28.2781 55.3327 17.5 40 17.5Z" fill="#FFB734"/>
<path d="M35.5 15L38.5 16H41.5L44.5 15L46 13.5L46.5 12.5V11V10L45.5 8.5L41.5 6L40.5 5H40L36 7.5L34 9L33.5 10.5V12.5L34.5 14L35.5 15Z" fill="#FFB734"/>
<path d="M40.7984 49.3425C40.2861 49.3425 39.7722 49.3425 39.2599 49.3425C26.9768 49.3425 14.6938 49.3425 2.40454 49.3425C2.40454 51.3832 2.40454 53.3699 2.40454 55.3736C3.21069 55.3736 3.96762 55.3736 4.71531 55.3736C5.03069 53.8061 5.87993 52.9861 7.20454 52.9399C8.803 52.8844 9.62762 53.5641 10.1584 55.4167C11.1892 55.4167 12.2384 55.4013 13.2861 55.4244C13.7215 55.4337 13.9415 55.3505 14.0861 54.8557C14.3922 53.8015 15.1738 53.1957 16.2676 53.0632C17.3215 52.9353 18.1922 53.3175 18.7968 54.1883C19.0492 54.5521 19.183 54.999 19.3738 55.4167C20.4768 55.4167 21.5553 55.4383 22.6292 55.3982C22.8353 55.3905 23.143 55.1871 23.2184 55.0006C23.7276 53.7259 24.583 53.037 25.7692 53.0231C26.9476 53.0093 27.8599 53.7105 28.3538 54.9574C28.4276 55.1439 28.6645 55.3905 28.8338 55.3967C30.0307 55.4352 31.2292 55.4167 32.403 55.4167C32.8476 53.8662 33.7415 53.0724 35.0307 53.0231C36.3568 52.9723 37.2492 53.7167 37.8615 55.4167C38.5784 55.4167 39.303 55.4229 40.0307 55.4183C40.7568 55.4229 41.4815 55.4167 42.1999 55.4167C42.8122 53.7167 43.7061 52.9723 45.0307 53.0231C46.3199 53.0724 47.2138 53.8662 47.6584 55.4167C48.8322 55.4167 50.0307 55.4337 51.2276 55.3967C51.3968 55.3921 51.6338 55.1455 51.7076 54.9574C52.2015 53.7105 53.1138 53.0093 54.2922 53.0231C55.4784 53.037 56.3322 53.7244 56.843 55.0006C56.9184 55.1886 57.2261 55.3905 57.4322 55.3982C58.5076 55.4383 59.5845 55.4167 60.6876 55.4167C60.8784 54.999 61.0122 54.5521 61.2645 54.1883C61.8692 53.316 62.7399 52.9353 63.7938 53.0632C64.8876 53.1957 65.6692 53.8015 65.9753 54.8557C66.1184 55.3505 66.3399 55.4337 66.7753 55.4244C67.823 55.4029 68.8722 55.4167 69.903 55.4167C70.4338 53.5626 71.2584 52.8829 72.8568 52.9399C74.1815 52.9861 75.0307 53.8046 75.3461 55.3736C76.0938 55.3736 76.8507 55.3736 77.6568 55.3736C77.6568 53.3699 77.6568 51.3832 77.6568 49.3425C65.3645 49.3425 53.083 49.3425 40.7984 49.3425Z" fill="#00435B"/>
<path d="M75.4416 43.1992C63.9231 38.3704 52.4047 33.5415 40.8755 28.7358C40.6339 28.6356 40.317 28.6002 40.0293 28.6341C39.7416 28.6002 39.4247 28.6356 39.1831 28.7358C27.6555 33.5415 16.1355 38.3704 4.61699 43.1992C3.11853 43.8265 1.62776 44.4692 0.013916 45.1551C1.26161 46.0244 2.45238 46.7442 3.5093 47.6243C4.40161 48.3687 5.15238 48.2315 6.02007 47.6135C5.90161 47.3638 5.72007 47.1203 5.68161 46.8582C5.65084 46.6409 5.71853 46.2725 5.86469 46.1909C6.52776 45.824 7.23392 45.5358 7.96468 45.1998C8.2293 45.7161 8.45699 46.1616 8.69545 46.627C9.49238 46.3034 10.2201 46.0074 10.9831 45.6961C10.8031 45.243 10.6462 44.8469 10.457 44.3675C11.2631 43.9899 12.0385 43.6246 12.8539 43.2424C13.1247 43.751 13.3585 44.1903 13.6047 44.6527C14.4308 44.312 15.1708 44.0069 15.917 43.6986C15.7201 43.2008 15.5647 42.8047 15.3862 42.3531C16.2247 41.9677 17.0001 41.6102 17.7955 41.2449C18.0631 41.772 18.2785 42.1989 18.5155 42.6644C19.3493 42.3253 20.1216 42.0109 20.9216 41.6857C20.7001 41.1663 20.5108 40.727 20.2908 40.2107C21.1201 39.8207 21.8955 39.457 22.7124 39.0732C23.0016 39.6419 23.2493 40.1321 23.5108 40.6484C24.4216 40.2769 25.2416 39.944 26.0985 39.5957C25.9062 39.1133 25.7385 38.694 25.5401 38.1978C26.3524 37.8171 27.1293 37.4533 27.9401 37.0742C28.2108 37.6028 28.4401 38.0513 28.697 38.5538C29.5001 38.2255 30.2647 37.9142 31.0278 37.6028C30.8201 37.0834 30.6524 36.6657 30.4601 36.1879C31.3016 35.8011 32.077 35.445 32.8785 35.0782C33.1508 35.6254 33.377 36.0769 33.6216 36.5702C34.3939 36.2527 35.1093 35.9567 35.8324 35.6593C35.6108 35.1244 35.4293 34.6867 35.2216 34.1889C36.0739 33.7974 36.8493 33.4414 37.6462 33.0761C37.9324 33.6479 38.1708 34.1195 38.4585 34.6944C38.9908 34.2629 39.5201 34.1164 40.0308 34.1396C40.5416 34.1164 41.0693 34.2629 41.6031 34.6944C41.8908 34.1195 42.1293 33.6479 42.4155 33.0761C43.2124 33.4414 43.9878 33.7974 44.8401 34.1889C44.6339 34.6867 44.4524 35.126 44.2293 35.6593C44.9508 35.9567 45.6678 36.2527 46.4401 36.5702C46.6847 36.0785 46.9108 35.6254 47.1832 35.0782C47.9832 35.445 48.7601 35.8026 49.6016 36.1879C49.4093 36.6673 49.2416 37.0849 49.0339 37.6028C49.7985 37.9142 50.5616 38.2255 51.3647 38.5538C51.6216 38.0513 51.8508 37.6028 52.1216 37.0742C52.9339 37.4549 53.7093 37.8186 54.5216 38.1978C54.3232 38.694 54.1555 39.1133 53.9632 39.5957C54.8185 39.944 55.6385 40.2785 56.5508 40.6484C56.8124 40.1321 57.0616 39.6419 57.3493 39.0732C58.1662 39.457 58.9416 39.8207 59.7708 40.2107C59.5493 40.727 59.3616 41.1663 59.1401 41.6857C59.9401 42.0109 60.7124 42.3253 61.5462 42.6644C61.7816 42.1989 61.9985 41.772 62.2662 41.2449C63.0616 41.6102 63.837 41.9677 64.6755 42.3531C64.497 42.8047 64.3416 43.2008 64.1447 43.6986C64.8908 44.0069 65.6308 44.312 66.457 44.6527C66.7031 44.1903 66.937 43.751 67.2078 43.2424C68.0216 43.6246 68.7985 43.9899 69.6047 44.3675C69.4155 44.8453 69.2585 45.2414 69.0785 45.6961C69.8416 46.0059 70.5693 46.3018 71.3662 46.627C71.6047 46.1616 71.8324 45.7161 72.097 45.1998C72.8278 45.5358 73.5339 45.824 74.197 46.1909C74.3432 46.271 74.4108 46.6409 74.3801 46.8582C74.3416 47.1218 74.1601 47.3638 74.0416 47.6135C74.9093 48.2315 75.6601 48.3687 76.5524 47.6243C77.6093 46.7426 78.8001 46.0244 80.0478 45.1551C78.4308 44.4692 76.9401 43.8265 75.4416 43.1992Z" fill="#00435B"/>
<path d="M44.9769 17.0327C44.7723 16.0787 44.7507 15.3204 45.7523 14.599C47.98 12.9961 47.6277 9.3556 45.183 7.69717C44.6769 7.35347 44.0784 6.99127 43.5846 6.63369C42.6384 5.94628 41.7307 5.3575 40.8246 4.61769C40.7077 4.52213 40.6354 4.30789 40.6307 4.14452C40.6107 3.4309 40.6215 2.71574 40.6215 1.95589C40.9846 1.93123 41.2815 1.91119 41.6461 1.88499C41.6646 1.64147 41.683 1.39949 41.7077 1.09431C41.3523 1.06349 41.0338 1.0342 40.66 1.00183C40.6354 0.721321 40.6107 0.297468 40.583 0C40.3892 0 40.2123 0 40.0292 0C39.8461 0 39.6692 0 39.4753 0C39.4492 0.295927 39.4246 0.71978 39.3984 1.00183C39.0246 1.03574 38.7061 1.06349 38.3507 1.09431C38.3738 1.39949 38.3938 1.64147 38.4123 1.88499C38.7769 1.90965 39.0753 1.92969 39.4369 1.95589C39.4369 2.71574 39.4492 3.4309 39.4277 4.14452C39.423 4.30635 39.3507 4.52059 39.2338 4.61769C38.3261 5.3575 37.42 5.94628 36.4738 6.63369C35.9815 6.99127 35.3815 7.35347 34.8754 7.69717C32.4292 9.35714 32.0784 12.9961 34.3061 14.599C35.3077 15.3204 35.2861 16.0787 35.0815 17.0327C19.6507 19.6622 10.9784 31.9955 8.83228 40.7115C10.0984 40.2923 10.0261 40.2614 10.523 39.0561C11.2784 37.2266 11.9861 35.3478 13.003 33.6647C14.5907 31.0353 16.3784 28.5138 18.7338 26.4823C20.0815 25.3202 21.4169 24.1319 22.8569 23.0931C24.9523 21.5826 27.3107 20.5546 29.7338 19.6791C33.0615 18.4769 36.4692 17.8404 40.0277 17.976C43.5861 17.8404 46.9938 18.4769 50.3215 19.6791C52.7446 20.5546 55.1046 21.5826 57.1984 23.0931C58.6384 24.1319 59.9738 25.3202 61.3215 26.4823C63.6784 28.5138 65.4646 31.0353 67.0523 33.6647C68.0692 35.3478 68.7769 37.2266 69.5323 39.0561C70.0292 40.2614 69.9569 40.2907 71.223 40.7115C69.08 31.9955 60.4077 19.6622 44.9769 17.0327ZM40.0292 14.8826C39.1707 14.8826 38.3123 14.8796 37.4538 14.8826C35.9138 14.8888 34.5584 14.0272 34.0415 12.7063C33.5169 11.367 33.8953 9.86422 35.0769 8.79919C35.5477 8.3738 36.0753 8.00697 36.6015 7.64785C37.5507 6.99897 38.5015 6.35009 39.4877 5.75978C39.62 5.68117 39.8354 5.65497 40.0307 5.67963C40.2261 5.65497 40.4415 5.67963 40.5738 5.75978C41.5584 6.35009 42.5107 6.99897 43.46 7.64785C43.9846 8.00697 44.5123 8.3738 44.9846 8.79919C46.1661 9.86422 46.5446 11.367 46.02 12.7063C45.503 14.0272 44.1477 14.8888 42.6077 14.8826C41.7461 14.8796 40.8877 14.8826 40.0292 14.8826Z" fill="#00435B"/>
<path d="M40.143 36.9924C40.1045 36.9924 40.0676 36.9939 40.0291 36.9939C39.9907 36.9939 39.9537 36.9908 39.9153 36.9924C37.0368 37.014 34.5291 39.5155 34.5445 42.3483C34.5599 45.1951 37.0922 47.6904 39.9553 47.6827C39.9799 47.6827 40.0045 47.6812 40.0291 47.6812C40.0537 47.6812 40.0784 47.6827 40.103 47.6827C42.966 47.6904 45.4968 45.1951 45.5137 42.3483C45.5291 39.5155 43.0214 37.014 40.143 36.9924ZM40.0907 46.3695C40.0707 46.3695 40.0491 46.368 40.0291 46.368C40.0091 46.368 39.9876 46.3695 39.9676 46.3695C37.7307 46.3495 35.983 44.6109 36.006 42.43C36.0291 40.2984 37.7983 38.6261 40.0291 38.6153C42.2599 38.6261 44.0307 40.2984 44.0522 42.43C44.0753 44.6109 42.3276 46.348 40.0907 46.3695Z" fill="#00435B"/>
<path d="M68.0308 62.5655C68.0308 62.2064 68.0308 61.912 68.0308 61.5791C71.0877 61.5791 74.1016 61.5791 77.1631 61.5791C77.1631 61.8997 77.1631 62.1941 77.1631 62.5439C76.5539 62.5856 75.9446 62.5902 75.3462 62.6765C74.3585 62.8183 74.1431 63.0819 74.1369 64.1006C74.1262 65.9502 74.1339 67.8013 74.1339 69.6508C74.1339 73.3761 74.1323 77.1029 74.1339 80.8282C74.1339 82.314 74.44 82.6176 75.9446 82.6346C76.3262 82.6392 76.7077 82.6346 77.1492 82.6346C77.1492 82.9798 77.1492 83.2727 77.1492 83.6318C67.0154 83.6318 56.8554 83.6318 46.6477 83.6318C46.6477 83.3297 46.6477 83.0353 46.6477 82.7024C47.3431 82.6438 48.0246 82.5961 48.7031 82.5267C49.24 82.4728 49.5231 82.1599 49.5631 81.6173C49.5954 81.158 49.6708 80.6987 49.6708 80.2379C49.6785 75.1763 49.6754 70.1147 49.6754 65.0532C49.6754 62.7844 49.5308 62.6395 47.2323 62.5963C47.0569 62.5933 46.8816 62.5748 46.6539 62.5609C46.6539 62.2357 46.6539 61.9398 46.6539 61.5914C49.68 61.5914 52.7154 61.5914 55.78 61.5914C55.78 61.9182 55.78 62.2126 55.78 62.5347C55.0877 62.5902 54.4308 62.6611 53.7723 62.6919C53.0954 62.7243 52.8416 63.1389 52.7631 63.7323C52.74 63.9095 52.7431 64.0914 52.7431 64.2702C52.7416 70.0253 52.7416 75.782 52.7446 81.5372C52.7446 81.7622 52.7692 81.9888 52.7862 82.2678C55.2954 82.2678 57.7646 82.2678 60.3216 82.2678C60.3216 81.9241 60.3216 81.6235 60.3216 81.323C60.3216 75.7466 60.3216 70.1718 60.3216 64.5954C60.3216 62.8322 60.1139 62.6272 58.3292 62.5963C58.1016 62.5933 57.8754 62.5763 57.5954 62.564C57.5954 62.2403 57.5954 61.9459 57.5954 61.593C60.4369 61.593 63.2969 61.593 66.2139 61.593C66.2139 61.8689 66.2139 62.1617 66.2139 62.5331C65.6769 62.5794 65.1031 62.6349 64.5277 62.6765C63.8046 62.7289 63.4831 63.1265 63.4908 63.8371C63.4939 64.1176 63.4416 64.3996 63.44 64.6817C63.4369 70.2581 63.4369 75.8329 63.4385 81.4093C63.4385 81.6852 63.4662 81.9611 63.4862 82.3248C64.72 82.3248 65.8939 82.3248 67.0662 82.3248C68.1692 82.3248 69.2723 82.3094 70.3739 82.331C70.8416 82.3402 71.0723 82.2323 71.0708 81.6944C71.0569 75.836 71.0677 69.9776 71.0554 64.1191C71.0539 63.0202 70.8277 62.7875 69.7231 62.6441C69.1939 62.5794 68.6539 62.5933 68.0308 62.5655Z" fill="#00435B"/>
<path d="M35.1355 72.086C35.7124 72.3079 36.0878 72.4482 36.4601 72.5977C38.0216 73.2265 39.1247 74.327 39.657 75.9222C40.0693 77.1568 40.3524 78.4345 40.7293 79.683C40.8985 80.2425 41.0908 80.8174 41.3985 81.306C41.5939 81.6142 42.0555 81.9903 42.3355 81.9456C42.6739 81.8916 43.0216 81.4693 43.2262 81.1225C43.4247 80.785 43.4539 80.3457 43.5401 79.9465C43.6047 79.6475 43.6385 79.3424 43.6939 78.9909C43.9831 78.9909 44.2478 78.9909 44.5893 78.9909C44.4985 80.4767 44.3016 81.8886 43.2816 83.0137C41.6755 84.7846 38.5447 84.128 37.8647 81.8053C37.437 80.3427 37.3355 78.7875 37.0708 77.2755C36.8816 76.1951 36.7555 75.0915 35.9908 74.2037C35.097 73.1649 33.8539 73.0508 32.6339 72.9491C31.6924 72.8705 30.7401 72.9337 29.6939 72.9337C29.6785 73.1849 29.6524 73.4284 29.6524 73.672C29.6493 76.1642 29.6478 78.6565 29.6524 81.1503C29.6539 82.2708 29.9724 82.5914 31.1216 82.6315C31.6539 82.65 32.1862 82.6345 32.7616 82.6345C32.7616 83.026 32.7616 83.3189 32.7616 83.6533C29.6724 83.6533 26.6308 83.6533 23.5262 83.6533C23.5262 83.3405 23.5262 83.0492 23.5262 82.6345C24.0309 82.6345 24.5339 82.65 25.0355 82.6315C26.1678 82.5914 26.5262 82.2477 26.5278 81.1457C26.5355 75.4922 26.5355 69.8388 26.5278 64.1854C26.5262 63.0448 26.1924 62.7335 25.0524 62.7273C24.5678 62.7242 24.0847 62.7273 23.5155 62.7273C23.4985 62.3867 23.4862 62.0969 23.4678 61.7363C26.5816 61.7363 29.6385 61.7363 32.7524 61.7363C32.7524 62.0476 32.7524 62.3404 32.7524 62.7288C32.097 62.7288 31.4616 62.7134 30.8278 62.7335C30.0555 62.7581 29.6601 63.1188 29.6555 63.8571C29.6416 66.4002 29.6508 68.9448 29.6539 71.4895C29.6539 71.5866 29.6862 71.6822 29.7062 71.7962C31.1093 71.7962 32.4955 71.9087 33.8555 71.7654C35.3201 71.6128 35.8955 70.893 36.1493 69.4088C36.4601 67.5931 36.6862 65.7559 37.1155 63.968C37.7508 61.3124 40.7708 60.2705 42.9601 61.8673C43.9724 62.6055 44.2985 64.0066 43.7139 65.0978C43.2124 66.0334 42.1493 66.3863 41.2232 65.9224C40.3355 65.4785 40.1478 64.7279 40.5401 63.6459C40.6447 63.3577 40.5801 62.8259 40.3816 62.6579C40.1585 62.4684 39.5416 62.4005 39.3662 62.5655C38.9232 62.9832 38.4555 63.518 38.3139 64.0867C37.9124 65.6974 37.637 67.3419 37.3739 68.9818C37.1616 70.3382 36.9016 71.6267 35.1355 72.086Z" fill="#00435B"/>
<path d="M9.49543 73.7214C9.49543 76.3631 9.49543 78.9063 9.49543 81.4494C9.49543 82.0197 9.78005 82.3988 10.3216 82.4944C10.8708 82.5915 11.437 82.6054 11.9954 82.6316C12.4231 82.6516 12.8539 82.6362 13.3247 82.6362C13.3247 83.02 13.3247 83.3143 13.3247 83.6519C9.8462 83.6519 6.39851 83.6519 2.89697 83.6519C2.89697 83.3251 2.89697 83.0323 2.89697 82.6362C3.59082 82.6362 4.24928 82.6501 4.90928 82.6331C6.02313 82.6023 6.31236 82.3002 6.31236 81.1951C6.3139 75.5416 6.3139 69.8898 6.31236 64.2363C6.31236 63.1297 5.95236 62.7551 4.85851 62.732C4.22313 62.7181 3.5862 62.7289 2.89851 62.7289C2.89851 62.3575 2.89851 62.0646 2.89851 61.7178C3.15082 61.6994 3.37543 61.6701 3.60005 61.6701C7.16467 61.667 10.7293 61.6531 14.2939 61.6747C16.2631 61.6855 18.0724 62.1664 19.5924 63.5397C21.7539 65.494 22.1831 70.5232 18.4924 72.4452C17.0339 73.2051 15.5201 73.669 13.8754 73.6829C12.6708 73.6936 11.4647 73.6829 10.26 73.6859C10.0154 73.6859 9.77082 73.7075 9.49543 73.7214ZM9.49697 72.6425C9.85082 72.6425 10.1031 72.644 10.3539 72.6425C11.4816 72.6348 12.6154 72.7011 13.7354 72.6009C15.9324 72.4036 17.3277 71.3709 17.6216 69.5152C17.8262 68.2236 17.7816 66.8596 17.6277 65.5541C17.4924 64.4089 16.7339 63.5119 15.64 63.0881C13.9277 62.4222 12.1385 62.4392 10.3477 62.7258C9.78005 62.8168 9.5062 63.2098 9.50313 63.7554C9.49236 66.6777 9.49697 69.6031 9.49697 72.6425Z" fill="#00435B"/>
</g>
<defs>
<clipPath id="clip0_123_1974">
<rect width="80" height="84" fill="white"/>
</clipPath>
</defs>
</svg>
