<?xml version="1.0" standalone="no"?>
<!DOCTYPE svg PUBLIC "-//W3C//DTD SVG 20010904//EN"
 "http://www.w3.org/TR/2001/REC-SVG-20010904/DTD/svg10.dtd">
<svg version="1.0" xmlns="http://www.w3.org/2000/svg"
 width="672.000000pt" height="672.000000pt" viewBox="0 0 672.000000 672.000000"
 preserveAspectRatio="xMidYMid meet">
<metadata>
Created by potrace 1.14, written by Peter Selinger 2001-2017
</metadata>
<g transform="translate(0.000000,672.000000) scale(0.100000,-0.100000)"
fill="#000000" stroke="none">
<path d="M3319 6713 c-3 -34 -9 -66 -12 -70 -3 -2 -20 -6 -39 -7 -29 -2 -33
-6 -36 -34 -3 -29 -1 -32 25 -33 15 -1 35 -2 43 -3 20 -1 22 -179 2 -207 -13
-18 -180 -141 -323 -237 -42 -28 -91 -69 -108 -91 -85 -108 -108 -251 -58
-361 25 -54 35 -67 116 -144 26 -25 41 -48 42 -65 1 -14 2 -33 3 -41 3 -29
-10 -63 -24 -66 -187 -31 -426 -104 -610 -186 -117 -52 -292 -146 -298 -160
-2 -4 -8 -8 -13 -8 -20 0 -243 -159 -329 -235 -47 -41 -248 -242 -285 -285
-119 -138 -315 -418 -315 -451 0 -5 -5 -9 -12 -9 -6 0 -9 -3 -5 -6 3 -3 -4
-23 -17 -43 -69 -112 -212 -491 -189 -498 14 -5 -6 -73 -21 -73 -5 0 -28 -9
-50 -19 -23 -11 -97 -43 -166 -71 -69 -29 -144 -61 -167 -71 -23 -11 -44 -19
-48 -19 -3 0 -24 -9 -48 -19 -97 -44 -186 -81 -196 -81 -27 0 -4 -23 81 -81
51 -34 111 -76 133 -94 95 -77 132 -88 198 -60 46 19 50 26 32 63 -11 21 -13
37 -6 55 9 22 36 42 54 39 4 -1 7 3 7 8 0 6 7 10 15 10 9 0 26 6 38 14 54 34
64 31 94 -28 l28 -54 92 35 92 36 -20 49 c-10 27 -19 52 -19 56 0 4 27 18 60
32 33 14 60 29 60 34 0 5 3 7 6 3 4 -3 19 0 34 8 27 14 29 14 49 -21 12 -19
21 -38 21 -42 0 -4 4 -13 8 -20 7 -10 26 -6 88 18 115 44 111 39 86 100 l-21
51 92 43 c51 24 95 41 100 39 4 -2 19 -27 33 -55 19 -38 29 -48 42 -43 9 3 52
20 95 37 84 33 84 33 51 102 -8 16 -14 34 -14 41 0 9 167 95 185 95 3 0 19
-27 35 -61 18 -35 36 -59 43 -56 7 3 53 22 103 42 l91 36 -12 35 c-6 18 -14
37 -18 40 -15 15 -6 45 16 53 12 5 52 23 88 40 36 17 68 31 71 31 3 0 18 -25
33 -55 14 -30 30 -55 33 -55 10 0 144 53 164 66 17 9 17 13 -3 63 -11 29 -19
55 -17 56 14 13 182 84 189 80 4 -3 17 -25 28 -49 10 -24 24 -47 30 -50 12 -8
171 53 171 66 0 4 -9 31 -20 59 -12 28 -19 53 -18 54 10 7 157 74 174 79 18 6
25 -1 42 -41 34 -75 34 -76 70 -57 54 26 131 29 176 5 21 -11 43 -18 47 -15 4
2 19 29 33 59 14 30 27 55 31 55 3 0 33 -13 68 -28 34 -16 76 -34 93 -42 l31
-14 -24 -59 c-13 -33 -23 -60 -21 -62 2 -1 26 -10 53 -21 28 -10 61 -24 75
-31 40 -21 48 -16 76 42 15 30 31 55 35 55 4 0 34 -13 67 -30 34 -16 64 -30
67 -30 3 0 16 -7 30 -16 l23 -15 -23 -54 -24 -54 95 -37 c52 -20 96 -35 98
-33 1 2 12 25 24 51 12 25 26 49 31 53 8 4 173 -65 189 -80 1 -1 -6 -26 -18
-54 -11 -28 -20 -53 -20 -55 0 -3 195 -86 203 -86 2 0 16 27 32 60 16 33 32
60 36 60 7 0 177 -78 187 -86 2 -1 -4 -19 -13 -40 -37 -87 -43 -77 61 -118 95
-38 114 -39 114 -7 0 10 7 24 15 31 8 7 15 18 15 26 0 25 17 22 101 -16 46
-22 88 -41 94 -43 5 -2 0 -26 -12 -55 -25 -60 -27 -58 72 -97 39 -15 75 -29
82 -32 7 -3 23 17 37 45 14 28 29 53 33 55 5 2 50 -15 100 -39 l93 -43 -20
-46 c-11 -26 -20 -50 -20 -55 0 -7 15 -14 133 -61 l47 -19 27 55 c15 30 30 55
34 55 14 0 144 -63 162 -78 21 -18 22 -48 2 -85 -14 -27 -13 -28 25 -47 64
-32 118 -22 184 35 16 14 61 46 100 72 39 27 73 50 76 54 3 3 22 15 43 28 48
30 56 25 -198 131 -110 46 -218 91 -240 101 -22 10 -80 34 -130 54 -49 20 -96
44 -102 53 -15 19 -17 56 -3 47 5 -3 8 0 5 7 -2 7 -14 47 -26 88 -13 41 -23
77 -24 80 -32 106 -203 457 -227 468 -5 2 -8 8 -8 13 0 9 -86 142 -116 178 -7
9 -33 43 -58 77 -74 100 -226 259 -353 372 -108 95 -339 262 -362 262 -5 0
-11 4 -13 9 -8 25 -465 236 -533 247 -9 1 -86 23 -190 53 -16 5 -61 15 -100
22 -38 7 -76 17 -83 22 -8 7 -12 30 -11 66 3 54 4 57 69 121 92 91 115 142
114 250 0 74 -4 93 -31 150 -38 79 -79 121 -198 201 -151 103 -239 166 -268
194 -27 26 -28 29 -25 123 l3 96 35 4 c19 2 37 6 40 8 8 9 7 54 -2 55 -17 3
-48 7 -63 8 -11 1 -15 13 -15 41 l0 40 -45 0 c-25 0 -45 -3 -46 -7z"/>
<path d="M3369 3766 c-2 -2 -26 -7 -54 -10 -78 -10 -78 -10 -146 -43 -135 -67
-230 -202 -243 -348 -10 -112 40 -241 130 -329 57 -57 158 -114 213 -121 14
-2 26 -4 26 -5 0 -1 20 -3 45 -4 241 -12 457 188 462 429 2 78 -47 205 -105
270 -68 78 -172 136 -268 150 -24 4 -46 8 -50 11 -3 2 -8 2 -10 0z m135 -167
c57 -28 120 -88 146 -140 17 -33 23 -54 34 -128 5 -27 -16 -115 -34 -150 -18
-35 -56 -78 -99 -113 -31 -26 -134 -58 -183 -58 -184 1 -322 132 -320 305 1
98 2 105 30 150 73 118 168 168 309 161 49 -2 86 -11 117 -27z"/>
<path d="M356 2760 c-3 -8 -4 -117 -4 -242 l0 -228 92 0 91 0 18 50 c32 90 93
139 180 144 102 6 171 -37 215 -132 14 -32 29 -59 33 -62 6 -4 183 -5 265 -1
16 1 27 14 43 50 29 68 72 108 134 125 74 21 135 13 190 -26 32 -23 73 -83 83
-122 3 -14 14 -26 23 -27 9 -1 69 -1 134 -2 132 0 158 8 175 56 26 72 101 126
181 132 91 6 162 -39 210 -132 11 -23 26 -45 32 -49 6 -3 75 -7 154 -8 l143
-1 23 53 c42 95 114 142 212 137 43 -2 67 -9 96 -30 42 -29 86 -88 97 -129 3
-14 11 -26 18 -27 6 0 84 -1 174 -2 l163 -2 27 52 c52 104 115 145 212 138 56
-4 105 -27 138 -64 26 -30 55 -86 55 -107 0 -15 5 -16 168 -16 141 -1 152 2
175 54 79 178 316 179 390 2 22 -52 33 -56 175 -57 72 -1 135 0 139 3 5 3 18
26 28 50 18 41 43 72 86 107 21 18 86 31 134 27 79 -6 142 -51 174 -127 12
-26 28 -51 37 -55 13 -6 141 -8 269 -3 13 1 22 7 22 16 0 30 50 114 82 138 66
50 171 55 245 12 31 -19 49 -40 72 -86 17 -34 28 -65 25 -70 -3 -5 38 -9 90
-9 l96 0 1 28 c0 15 1 123 2 240 l2 212 -25 1 c-14 0 -1367 1 -3008 2 -2643 2
-2983 0 -2986 -13z"/>
<path d="M3319 1815 c-56 -18 -133 -84 -160 -136 -19 -38 -43 -122 -53 -184
-38 -236 -69 -392 -86 -424 -39 -78 -88 -93 -305 -96 -88 -1 -165 0 -171 2
-14 5 -17 624 -3 668 13 45 38 54 144 57 l95 1 0 39 0 38 -207 0 c-115 0 -281
1 -371 3 l-162 2 0 -41 0 -42 73 -1 c39 -1 81 -1 92 -2 35 0 64 -27 71 -66 8
-40 8 -1398 1 -1446 -5 -33 -35 -67 -63 -72 -10 -2 -53 -4 -94 -4 l-76 -1 -1
-40 c-2 -39 -1 -40 30 -41 41 -1 689 -1 700 0 4 1 7 19 7 41 l0 40 -87 1 c-49
1 -91 1 -94 1 -3 0 -18 10 -35 23 l-29 23 -1 354 c-1 196 2 358 7 364 9 11
246 12 294 1 11 -2 37 -7 58 -11 40 -8 99 -36 131 -65 28 -25 67 -97 78 -144
15 -66 14 -57 53 -322 35 -236 104 -321 267 -333 59 -4 75 -1 122 22 81 39
145 128 162 224 4 20 9 46 11 57 2 11 5 37 7 58 2 36 1 37 -31 37 -19 0 -35
-6 -37 -12 -2 -7 -11 -48 -21 -91 -9 -42 -21 -77 -25 -77 -5 0 -11 -9 -15 -19
-6 -21 -39 -37 -65 -32 -25 5 -51 33 -74 81 -23 45 -35 82 -96 300 -41 146
-68 198 -134 263 -48 48 -158 113 -207 122 -39 8 -40 18 -2 35 62 27 105 87
118 162 3 17 7 34 9 37 2 3 7 29 10 56 4 28 9 61 11 75 20 99 26 130 30 160
19 144 86 260 150 260 56 0 66 -30 49 -142 -9 -64 7 -98 60 -127 79 -43 160
-16 204 69 54 106 3 228 -118 283 -57 26 -160 32 -221 12z"/>
<path d="M3927 1792 c-37 -3 -38 -4 -35 -40 l3 -37 55 -2 c138 -5 171 -24 180
-103 6 -61 4 -1343 -3 -1394 -7 -51 -29 -96 -50 -97 -62 -3 -146 -10 -164 -14
-19 -4 -23 -12 -23 -40 l0 -35 1220 0 1220 0 0 40 0 40 -77 0 c-104 0 -144 20
-155 74 -5 22 -7 363 -6 759 l3 719 23 18 c21 17 77 29 164 34 20 1 39 4 42 7
12 11 13 68 2 71 -9 3 -696 2 -718 -1 -10 -1 -10 -52 0 -68 4 -6 25 -11 47
-11 109 3 183 -25 186 -69 1 -10 2 -346 3 -748 1 -652 0 -731 -14 -745 -14
-14 -54 -16 -299 -15 -275 0 -284 1 -290 20 -4 11 -7 346 -6 745 0 759 2 779
43 795 10 4 40 9 67 12 28 3 59 6 70 8 11 2 25 4 31 4 6 1 11 17 12 36 1 32
-1 35 -26 36 -34 1 -584 1 -633 0 -31 -1 -35 -4 -33 -23 1 -13 3 -30 3 -39 1
-12 14 -16 59 -17 97 -3 135 -17 148 -54 10 -29 12 -1508 2 -1514 -6 -4 -411
-7 -561 -5 l-37 1 2 760 c3 746 3 760 23 780 20 19 59 27 167 33 27 1 48 4 49
7 6 42 2 70 -11 71 -52 2 -652 3 -683 1z"/>
<path d="M403 1783 c-8 -3 -13 -21 -13 -43 l0 -38 100 0 c109 -1 153 -15 166
-54 5 -13 9 -345 9 -738 2 -732 0 -763 -36 -786 -8 -5 -63 -11 -124 -14 l-110
-5 -3 -38 c-3 -33 -1 -37 20 -38 30 0 708 0 770 0 l47 1 -3 35 c-1 19 -4 36
-7 39 -2 2 -57 6 -121 8 -154 6 -163 12 -183 115 -2 13 0 25 4 28 5 2 5 22 2
42 -4 21 -4 52 -1 68 3 17 3 50 -1 75 -4 25 -3 47 2 48 5 2 7 8 4 13 -3 4 -5
32 -5 61 0 29 1 69 1 88 0 19 0 64 -1 99 0 36 3 67 6 70 3 3 96 6 207 7 111 0
221 4 244 8 24 4 45 7 48 7 3 0 38 11 77 25 255 92 359 224 354 451 -2 87 -37
223 -58 223 -4 0 -8 7 -8 15 0 20 -86 107 -138 139 -44 28 -133 65 -167 72
-11 1 -33 6 -50 10 -32 7 -1012 13 -1032 7z m930 -87 c73 -17 118 -37 150 -67
12 -10 24 -19 27 -19 4 0 20 -26 35 -57 29 -57 29 -61 30 -233 0 -168 -1 -177
-26 -230 -50 -105 -132 -157 -274 -175 -52 -7 -344 -10 -349 -4 -8 9 -11 139
-3 139 4 0 6 4 3 8 -5 9 -7 39 -7 147 0 60 0 74 2 98 1 6 -1 24 -4 39 -3 15
-1 30 4 34 5 3 7 9 5 13 -5 8 -6 37 -7 174 0 82 2 91 25 112 16 15 44 26 73
30 27 3 55 7 63 9 40 7 192 -4 253 -18z"/>
</g>
</svg>
