<svg width="32" height="32" viewBox="0 0 32 32" fill="none" xmlns="http://www.w3.org/2000/svg">
<rect width="32" height="32" fill="#00435B"/>
<path d="M19.2335 8H12.7665C10.1382 8 8 10.1382 8 12.7665V19.2335C8 21.8618 10.1382 24 12.7665 24H19.2335C21.8618 24 24 21.8618 24 19.2335V12.7665C24 10.1382 21.8617 8 19.2335 8ZM22.3904 19.2335C22.3904 20.977 20.977 22.3904 19.2335 22.3904H12.7665C11.023 22.3904 9.6096 20.977 9.6096 19.2335V12.7665C9.6096 11.023 11.023 9.6096 12.7665 9.6096H19.2335C20.977 9.6096 22.3904 11.023 22.3904 12.7665V19.2335Z" fill="white"/>
<path d="M16 11.8618C13.7182 11.8618 11.8618 13.7182 11.8618 16C11.8618 18.2817 13.7182 20.1381 16 20.1381C18.2818 20.1381 20.1382 18.2817 20.1382 16C20.1382 13.7182 18.2818 11.8618 16 11.8618ZM16 18.5286C14.6035 18.5286 13.4714 17.3965 13.4714 16C13.4714 14.6035 14.6035 13.4714 16 13.4714C17.3965 13.4714 18.5286 14.6035 18.5286 16C18.5286 17.3965 17.3965 18.5286 16 18.5286Z" fill="white"/>
<path d="M20.1461 12.8845C20.6938 12.8845 21.1377 12.4406 21.1377 11.893C21.1377 11.3453 20.6938 10.9014 20.1461 10.9014C19.5985 10.9014 19.1545 11.3453 19.1545 11.893C19.1545 12.4406 19.5985 12.8845 20.1461 12.8845Z" fill="white"/>
</svg>
