<?xml version="1.0" encoding="utf-8"?><svg xmlns="http://www.w3.org/2000/svg" xmlns:xlink="http://www.w3.org/1999/xlink"><symbol viewBox="0 0 32 32" id="1" xmlns="http://www.w3.org/2000/svg"><path d="M0 0h32v32H0z"/><path d="M19.233 8h-6.466A4.772 4.772 0 008 12.767v6.466A4.772 4.772 0 0012.767 24h6.466A4.772 4.772 0 0024 19.233v-6.466A4.772 4.772 0 0019.233 8zm3.157 11.233a3.157 3.157 0 01-3.157 3.157h-6.466a3.157 3.157 0 01-3.157-3.157v-6.466a3.157 3.157 0 013.157-3.157h6.466a3.157 3.157 0 013.157 3.157v6.466z"/><path d="M16 11.862A4.143 4.143 0 0011.862 16 4.143 4.143 0 0016 20.138 4.143 4.143 0 0020.138 16 4.143 4.143 0 0016 11.862zm0 6.667a2.529 2.529 0 110-5.058 2.529 2.529 0 010 5.058zm4.146-5.645a.992.992 0 100-1.983.992.992 0 000 1.983z"/></symbol><symbol viewBox="0 0 32 32" id="2" xmlns="http://www.w3.org/2000/svg"><path d="M0 0h32v32H0z"/><g clip-path="url(#bclip0_202_175)"><path d="M23.915 19.68a1.123 1.123 0 00-.054-.104c-.278-.5-.808-1.114-1.591-1.841l-.017-.017-.008-.008-.008-.009h-.009c-.355-.338-.58-.566-.675-.683-.172-.222-.21-.447-.116-.675.066-.172.316-.536.75-1.091.227-.294.408-.53.54-.708.962-1.277 1.378-2.094 1.25-2.45l-.05-.082c-.032-.05-.119-.096-.257-.138a1.313 1.313 0 00-.534-.02l-2.399.016a.31.31 0 00-.166.004l-.109.025-.041.021-.034.025a.37.37 0 00-.091.088.568.568 0 00-.083.145 13.606 13.606 0 01-.892 1.875 17.94 17.94 0 01-.566.895 4.296 4.296 0 01-.433.558c-.117.12-.223.215-.317.288-.095.072-.167.102-.217.091a6.184 6.184 0 01-.141-.033.555.555 0 01-.188-.204.915.915 0 01-.096-.325 3.575 3.575 0 01-.029-.337 7.069 7.069 0 01.005-.4c.005-.173.008-.29.008-.35 0-.211.004-.44.012-.688l.021-.587c.006-.144.009-.297.009-.458 0-.161-.01-.287-.03-.379a1.298 1.298 0 00-.087-.267.448.448 0 00-.17-.2.963.963 0 00-.28-.112 5.543 5.543 0 00-1.124-.108c-1.033-.011-1.697.055-1.992.2a1.123 1.123 0 00-.316.25c-.1.122-.114.188-.042.2.333.05.57.169.708.358l.05.1c.04.072.078.2.117.383.039.183.064.386.075.608.028.405.028.753 0 1.041-.028.29-.054.514-.08.675a1.35 1.35 0 01-.212.575.145.145 0 01-.041.041.623.623 0 01-.225.042c-.078 0-.172-.039-.284-.117a1.994 1.994 0 01-.345-.32 4.28 4.28 0 01-.404-.57 9.952 9.952 0 01-.467-.867l-.133-.242a20.788 20.788 0 01-.341-.679 13.074 13.074 0 01-.384-.862.55.55 0 00-.2-.267l-.041-.025a.878.878 0 00-.325-.125l-2.283.017c-.233 0-.391.053-.475.158l-.033.05a.27.27 0 00-.025.134c0 .06.017.136.05.224.333.784.696 1.539 1.087 2.266.392.728.732 1.314 1.02 1.758.29.444.584.864.884 1.258.3.394.498.647.595.758.097.111.174.194.23.25l.208.2c.133.133.329.293.587.479.258.186.544.37.858.55.314.18.679.327 1.095.441.417.114.822.16 1.217.138h.958c.194-.017.341-.078.441-.184l.034-.041a.555.555 0 00.062-.154c.02-.07.03-.146.03-.23a2.742 2.742 0 01.053-.645c.042-.191.089-.336.142-.433a1.068 1.068 0 01.32-.366.537.537 0 01.067-.03c.134-.044.29-.001.471.13.18.13.35.291.508.483.159.191.349.406.57.645.223.24.417.417.584.534l.166.1c.112.066.256.127.434.183.177.055.333.07.466.041l2.133-.033c.21 0 .375-.035.491-.104.117-.07.186-.146.209-.23a.645.645 0 00.004-.282 1.06 1.06 0 00-.059-.221z"/></g><defs><clipPath id="bclip0_202_175"><path transform="translate(8 8)" d="M0 0h16v16H0z"/></clipPath></defs></symbol></svg>