<svg width="32" height="32" viewBox="0 0 32 32" fill="none" xmlns="http://www.w3.org/2000/svg">
<rect width="32" height="32" fill="#00435B"/>
<g clip-path="url(#clip0_202_175)">
<path d="M23.9152 19.6798C23.8958 19.638 23.8777 19.6034 23.861 19.5756C23.5834 19.0757 23.0529 18.462 22.2698 17.7345L22.2533 17.7178L22.245 17.7096L22.2366 17.7013H22.2282C21.8728 17.3625 21.6478 17.1347 21.5535 17.0181C21.3811 16.7959 21.3425 16.571 21.4367 16.3432C21.5033 16.171 21.7534 15.8075 22.1865 15.252C22.4143 14.9576 22.5947 14.7217 22.7279 14.5439C23.6888 13.2665 24.1053 12.4502 23.9775 12.0948L23.9279 12.0117C23.8946 11.9617 23.8085 11.9159 23.6698 11.8742C23.5308 11.8326 23.3531 11.8257 23.1365 11.8534L20.7373 11.87C20.6985 11.8562 20.643 11.8575 20.5707 11.8742C20.4985 11.8909 20.4623 11.8993 20.4623 11.8993L20.4206 11.9201L20.3874 11.9452C20.3597 11.9618 20.3291 11.9909 20.2958 12.0326C20.2626 12.0741 20.2348 12.1228 20.2127 12.1783C19.9515 12.8503 19.6545 13.4751 19.3212 14.0527C19.1157 14.3971 18.927 14.6955 18.7546 14.9482C18.5825 15.2009 18.4381 15.387 18.3215 15.5063C18.2048 15.6257 18.0995 15.7214 18.0049 15.7937C17.9105 15.866 17.8384 15.8965 17.7884 15.8854C17.7384 15.8742 17.6913 15.8631 17.6467 15.852C17.569 15.802 17.5065 15.734 17.4593 15.6479C17.412 15.5618 17.3802 15.4535 17.3635 15.323C17.3469 15.1924 17.3371 15.08 17.3343 14.9856C17.3317 14.8913 17.3329 14.7578 17.3385 14.5857C17.3443 14.4134 17.3469 14.2969 17.3469 14.2358C17.3469 14.0247 17.351 13.7957 17.3593 13.5485C17.3677 13.3014 17.3745 13.1056 17.3802 12.9613C17.3858 12.8169 17.3885 12.6641 17.3885 12.5031C17.3885 12.342 17.3787 12.2157 17.3593 12.124C17.3401 12.0325 17.3108 11.9436 17.272 11.8574C17.2331 11.7713 17.1761 11.7048 17.1013 11.6575C17.0263 11.6103 16.9331 11.5728 16.8222 11.545C16.5278 11.4784 16.153 11.4423 15.6975 11.4367C14.6646 11.4256 14.0008 11.4923 13.7065 11.6367C13.5899 11.6978 13.4843 11.7811 13.39 11.8866C13.29 12.0088 13.276 12.0755 13.3482 12.0865C13.6815 12.1364 13.9174 12.2558 14.0563 12.4446L14.1063 12.5447C14.1452 12.6169 14.1841 12.7447 14.223 12.9279C14.2618 13.1111 14.2869 13.3138 14.2979 13.5359C14.3256 13.9414 14.3256 14.2885 14.2979 14.5772C14.2701 14.8661 14.2439 15.091 14.2188 15.252C14.1937 15.4131 14.1563 15.5436 14.1063 15.6435C14.0563 15.7435 14.023 15.8046 14.0063 15.8268C13.9896 15.8489 13.9757 15.8629 13.9647 15.8684C13.8925 15.8961 13.8175 15.9102 13.7398 15.9102C13.6619 15.9102 13.5676 15.8712 13.4565 15.7934C13.3455 15.7157 13.2303 15.6088 13.1109 15.4727C12.9914 15.3366 12.8567 15.1464 12.7067 14.9021C12.5568 14.6577 12.4013 14.3689 12.2403 14.0357L12.107 13.7941C12.0237 13.6386 11.9099 13.4123 11.7655 13.1152C11.621 12.818 11.4933 12.5306 11.3823 12.2529C11.3379 12.1362 11.2712 12.0475 11.1824 11.9864L11.1407 11.9613C11.113 11.9391 11.0685 11.9156 11.0074 11.8905C10.9463 11.8654 10.8825 11.8474 10.8158 11.8364L8.53326 11.853C8.30001 11.853 8.14175 11.9058 8.05841 12.0113L8.02506 12.0613C8.0084 12.0891 8 12.1335 8 12.1946C8 12.2557 8.01666 12.3307 8.05001 12.4195C8.38322 13.2026 8.74559 13.9579 9.1371 14.6854C9.52861 15.4129 9.86882 15.999 10.1575 16.443C10.4463 16.8874 10.7407 17.3067 11.0406 17.7009C11.3405 18.0953 11.539 18.348 11.6362 18.459C11.7334 18.5702 11.8098 18.6534 11.8653 18.7089L12.0736 18.9088C12.2069 19.0421 12.4026 19.2018 12.6609 19.3878C12.9192 19.5739 13.2052 19.7572 13.519 19.9378C13.8328 20.1182 14.1979 20.2653 14.6145 20.3792C15.031 20.4931 15.4364 20.5388 15.8307 20.5168H16.7888C16.9831 20.5 17.1303 20.4389 17.2303 20.3334L17.2635 20.2917C17.2858 20.2585 17.3066 20.207 17.3259 20.1377C17.3454 20.0683 17.3551 19.9918 17.3551 19.9087C17.3494 19.6699 17.3675 19.4547 17.4091 19.2631C17.4506 19.0716 17.4979 18.9272 17.5509 18.8299C17.6038 18.7328 17.6635 18.6508 17.7299 18.5843C17.7965 18.5177 17.8439 18.4774 17.8718 18.4635C17.8994 18.4495 17.9215 18.44 17.9382 18.4343C18.0715 18.3899 18.2283 18.4329 18.409 18.5636C18.5895 18.6941 18.7588 18.8552 18.9172 19.0467C19.0755 19.2384 19.2657 19.4535 19.4878 19.6923C19.71 19.9311 19.9044 20.1087 20.0709 20.2255L20.2375 20.3254C20.3487 20.3921 20.4931 20.4532 20.6708 20.5088C20.8483 20.5643 21.0037 20.5781 21.1372 20.5504L23.2698 20.5171C23.4807 20.5171 23.6448 20.4822 23.7612 20.4129C23.8779 20.3435 23.9472 20.267 23.9695 20.1838C23.9918 20.1006 23.993 20.0061 23.9738 19.9005C23.954 19.7951 23.9346 19.7214 23.9152 19.6798Z" fill="white"/>
</g>
<defs>
<clipPath id="clip0_202_175">
<rect width="16" height="16" fill="white" transform="translate(8 8)"/>
</clipPath>
</defs>
</svg>
