<svg width="58" height="82" viewBox="0 0 58 82" fill="none" xmlns="http://www.w3.org/2000/svg">
<path d="M29 81C36.0311 56.904 57 51.912 57 29.8C57 14.312 43.5911 1 29 1C14.4089 1 1 14.312 1 29.8C1 51.912 21.9689 56.904 29 81Z" fill="white" stroke="#CCD9DE" stroke-miterlimit="10" stroke-linejoin="round"/>
<g clip-path="url(#clip0_281_170)">
<path d="M29 18.5C22.4836 18.5 17.0376 23.1192 15.7095 29L28.3625 24.0714L31.55 24.9286L42.2905 29C40.9623 23.1192 35.5164 18.5 29 18.5Z" fill="#FFB734"/>
<path d="M27.0875 17.4288L28.3625 17.8574H29.6375L30.9126 17.4288L31.5501 16.7859L31.7626 16.3574V15.7145V15.2859L31.3376 14.6431L29.6375 13.5716L29.2125 13.1431H29L27.3 14.2145L26.45 14.8574L26.2375 15.5002V16.3574L26.6625 17.0002L27.0875 17.4288Z" fill="#FFB734"/>
<path d="M29.3394 32.1465C29.1216 32.1465 28.9032 32.1465 28.6855 32.1465C23.4652 32.1465 18.2449 32.1465 13.022 32.1465C13.022 33.0211 13.022 33.8725 13.022 34.7312C13.3646 34.7312 13.6863 34.7312 14.004 34.7312C14.1381 34.0594 14.499 33.708 15.062 33.6882C15.7413 33.6644 16.0918 33.9557 16.3174 34.7497C16.7554 34.7497 17.2014 34.7431 17.6466 34.753C17.8317 34.757 17.9252 34.7213 17.9866 34.5093C18.1167 34.0575 18.4489 33.7979 18.9138 33.7411C19.3617 33.6862 19.7317 33.85 19.9887 34.2233C20.0959 34.3791 20.1528 34.5707 20.2339 34.7497C20.7027 34.7497 21.161 34.759 21.6174 34.7418C21.705 34.7385 21.8358 34.6513 21.8679 34.5714C22.0843 34.0251 22.4478 33.7298 22.9519 33.7239C23.4528 33.7179 23.8405 34.0185 24.0504 34.5529C24.0818 34.6328 24.1825 34.7385 24.2544 34.7411C24.7631 34.7576 25.2724 34.7497 25.7713 34.7497C25.9603 34.0852 26.3402 33.745 26.8881 33.7239C27.4517 33.7021 27.8309 34.0211 28.0912 34.7497C28.3959 34.7497 28.7038 34.7524 29.0131 34.7504C29.3217 34.7524 29.6297 34.7497 29.935 34.7497C30.1952 34.0211 30.5751 33.7021 31.1381 33.7239C31.686 33.745 32.0659 34.0852 32.2549 34.7497C32.7537 34.7497 33.2631 34.757 33.7718 34.7411C33.8437 34.7391 33.9444 34.6335 33.9758 34.5529C34.1857 34.0185 34.5734 33.7179 35.0742 33.7239C35.5784 33.7298 35.9412 34.0244 36.1583 34.5714C36.1904 34.652 36.3211 34.7385 36.4087 34.7418C36.8658 34.759 37.3235 34.7497 37.7923 34.7497C37.8734 34.5707 37.9302 34.3791 38.0375 34.2233C38.2944 33.8494 38.6645 33.6862 39.1124 33.7411C39.5773 33.7979 39.9094 34.0575 40.0395 34.5093C40.1004 34.7213 40.1945 34.757 40.3795 34.753C40.8248 34.7438 41.2707 34.7497 41.7088 34.7497C41.9344 33.9551 42.2849 33.6638 42.9642 33.6882C43.5272 33.708 43.8881 34.0588 44.0221 34.7312C44.3399 34.7312 44.6616 34.7312 45.0042 34.7312C45.0042 33.8725 45.0042 33.0211 45.0042 32.1465C39.78 32.1465 34.5603 32.1465 29.3394 32.1465Z" fill="#00435B"/>
<path d="M44.0626 29.5137C39.1673 27.4442 34.2719 25.3747 29.372 23.3151C29.2694 23.2721 29.1347 23.2569 29.0124 23.2715C28.8901 23.2569 28.7554 23.2721 28.6528 23.3151C23.7535 25.3747 18.8575 27.4442 13.9622 29.5137C13.3253 29.7825 12.6917 30.058 12.0059 30.3519C12.5361 30.7245 13.0422 31.0329 13.4914 31.4101C13.8706 31.7292 14.1897 31.6704 14.5585 31.4055C14.5081 31.2985 14.431 31.1941 14.4146 31.0818C14.4016 30.9887 14.4303 30.8308 14.4924 30.7958C14.7742 30.6386 15.0744 30.5151 15.3849 30.3711C15.4974 30.5924 15.5942 30.7833 15.6955 30.9827C16.0342 30.844 16.3435 30.7172 16.6678 30.5838C16.5913 30.3896 16.5246 30.2198 16.4442 30.0144C16.7868 29.8525 17.1163 29.696 17.4629 29.5322C17.5779 29.7502 17.6773 29.9384 17.7819 30.1366C18.1331 29.9906 18.4476 29.8598 18.7647 29.7277C18.681 29.5143 18.6149 29.3446 18.5391 29.151C18.8954 28.9859 19.225 28.8326 19.563 28.6761C19.6768 28.902 19.7683 29.085 19.869 29.2845C20.2234 29.1391 20.5516 29.0044 20.8916 28.865C20.7975 28.6424 20.7171 28.4542 20.6236 28.2329C20.976 28.0657 21.3055 27.9099 21.6527 27.7454C21.7756 27.9891 21.8809 28.1992 21.9921 28.4205C22.3791 28.2613 22.7276 28.1186 23.0918 27.9693C23.0101 27.7626 22.9388 27.5829 22.8545 27.3702C23.1997 27.207 23.5299 27.0511 23.8745 26.8886C23.9896 27.1152 24.087 27.3074 24.1962 27.5228C24.5375 27.3821 24.8624 27.2486 25.1867 27.1152C25.0985 26.8926 25.0272 26.7136 24.9455 26.5088C25.3031 26.343 25.6327 26.1904 25.9733 26.0332C26.0891 26.2677 26.1852 26.4613 26.2891 26.6726C26.6174 26.5366 26.9214 26.4097 27.2287 26.2823C27.1346 26.053 27.0574 25.8655 26.9691 25.6521C27.3314 25.4843 27.6609 25.3317 27.9996 25.1752C28.1212 25.4202 28.2226 25.6224 28.3448 25.8688C28.5711 25.6838 28.796 25.621 29.0131 25.631C29.2301 25.621 29.4544 25.6838 29.6813 25.8688C29.8036 25.6224 29.9049 25.4202 30.0265 25.1752C30.3652 25.3317 30.6947 25.4843 31.057 25.6521C30.9694 25.8655 30.8922 26.0537 30.7974 26.2823C31.1041 26.4097 31.4087 26.5366 31.737 26.6726C31.8409 26.4619 31.9371 26.2677 32.0528 26.0332C32.3928 26.1904 32.723 26.3437 33.0806 26.5088C32.9989 26.7143 32.9276 26.8933 32.8394 27.1152C33.1643 27.2486 33.4886 27.3821 33.8299 27.5228C33.9391 27.3074 34.0366 27.1152 34.1516 26.8886C34.4969 27.0518 34.8264 27.2077 35.1716 27.3702C35.0873 27.5829 35.016 27.7626 34.9343 27.9693C35.2978 28.1186 35.6463 28.2619 36.0341 28.4205C36.1452 28.1992 36.2511 27.9891 36.3734 27.7454C36.7206 27.9099 37.0501 28.0657 37.4026 28.2329C37.3084 28.4542 37.2286 28.6424 37.1345 28.865C37.4745 29.0044 37.8027 29.1391 38.1571 29.2845C38.2571 29.085 38.3493 28.902 38.4631 28.6761C38.8011 28.8326 39.1307 28.9859 39.487 29.151C39.4112 29.3446 39.3451 29.5143 39.2614 29.7277C39.5786 29.8598 39.8931 29.9906 40.2442 30.1366C40.3488 29.9384 40.4482 29.7502 40.5632 29.5322C40.9091 29.696 41.2393 29.8525 41.5819 30.0144C41.5015 30.2191 41.4348 30.3889 41.3583 30.5838C41.6826 30.7165 41.9919 30.8434 42.3306 30.9827C42.4319 30.7833 42.5287 30.5924 42.6412 30.3711C42.9517 30.5151 43.2519 30.6386 43.5337 30.7958C43.5958 30.8302 43.6246 30.9887 43.6115 31.0818C43.5951 31.1948 43.518 31.2985 43.4676 31.4055C43.8364 31.6704 44.1555 31.7292 44.5347 31.4101C44.9839 31.0323 45.49 30.7245 46.0202 30.3519C45.333 30.058 44.6995 29.7825 44.0626 29.5137Z" fill="#00435B"/>
<path d="M31.1151 18.2997C31.0282 17.8909 31.019 17.5659 31.4447 17.2567C32.3914 16.5698 32.2417 15.0095 31.2027 14.2988C30.9876 14.1515 30.7333 13.9963 30.5234 13.843C30.1213 13.5484 29.7355 13.2961 29.3504 12.979C29.3007 12.9381 29.27 12.8462 29.268 12.7762C29.2595 12.4704 29.2641 12.1639 29.2641 11.8382C29.4184 11.8277 29.5446 11.8191 29.6995 11.8079C29.7074 11.7035 29.7152 11.5998 29.7257 11.469C29.5747 11.4558 29.4393 11.4432 29.2804 11.4294C29.27 11.3091 29.2595 11.1275 29.2477 11C29.1654 11 29.0902 11 29.0124 11C28.9345 11 28.8594 11 28.777 11C28.7659 11.1268 28.7554 11.3085 28.7443 11.4294C28.5854 11.4439 28.45 11.4558 28.299 11.469C28.3088 11.5998 28.3173 11.7035 28.3252 11.8079C28.4801 11.8184 28.607 11.827 28.7606 11.8382C28.7606 12.1639 28.7659 12.4704 28.7567 12.7762C28.7547 12.8456 28.724 12.9374 28.6743 12.979C28.2885 13.2961 27.9034 13.5484 27.5013 13.843C27.2921 13.9963 27.0371 14.1515 26.822 14.2988C25.7824 15.0102 25.6333 16.5698 26.58 17.2567C27.0057 17.5659 26.9965 17.8909 26.9096 18.2997C20.3515 19.4266 16.6658 24.7124 15.7537 28.4478C16.2918 28.2681 16.261 28.2549 16.4722 27.7383C16.7933 26.9543 17.094 26.1491 17.5262 25.4277C18.201 24.3008 18.9608 23.2202 19.9618 22.3496C20.5346 21.8515 21.1021 21.3422 21.7141 20.897C22.6047 20.2497 23.607 19.8091 24.6368 19.4339C26.0511 18.9187 27.4994 18.6459 29.0117 18.704C30.524 18.6459 31.9723 18.9187 33.3866 19.4339C34.4164 19.8091 35.4194 20.2497 36.3093 20.897C36.9213 21.3422 37.4888 21.8515 38.0616 22.3496C39.0633 23.2202 39.8224 24.3008 40.4972 25.4277C40.9293 26.1491 41.2301 26.9543 41.5512 27.7383C41.7623 28.2549 41.7316 28.2675 42.2697 28.4478C41.3589 24.7124 37.6732 19.4266 31.1151 18.2997ZM29.0124 17.3783C28.6475 17.3783 28.2827 17.377 27.9178 17.3783C27.2633 17.3809 26.6873 17.0117 26.4676 16.4456C26.2446 15.8716 26.4055 15.2275 26.9076 14.7711C27.1077 14.5888 27.332 14.4316 27.5556 14.2777C27.959 13.9996 28.3631 13.7215 28.7822 13.4685C28.8384 13.4348 28.93 13.4236 29.013 13.4341C29.096 13.4236 29.1876 13.4341 29.2438 13.4685C29.6623 13.7215 30.067 13.9996 30.4704 14.2777C30.6934 14.4316 30.9177 14.5888 31.1184 14.7711C31.6205 15.2275 31.7814 15.8716 31.5584 16.4456C31.3387 17.0117 30.7627 17.3809 30.1082 17.3783C29.742 17.377 29.3772 17.3783 29.0124 17.3783Z" fill="#00435B"/>
<path d="M29.0608 26.8537C29.0444 26.8537 29.0287 26.8544 29.0124 26.8544C28.996 26.8544 28.9803 26.853 28.964 26.8537C27.7407 26.8629 26.6749 27.935 26.6814 29.1491C26.688 30.3691 27.7642 31.4386 28.981 31.4353C28.9915 31.4353 29.0019 31.4346 29.0124 31.4346C29.0228 31.4346 29.0333 31.4353 29.0438 31.4353C30.2606 31.4386 31.3362 30.3691 31.3433 29.1491C31.3499 27.935 30.2841 26.8629 29.0608 26.8537ZM29.0385 30.8725C29.03 30.8725 29.0209 30.8718 29.0124 30.8718C29.0039 30.8718 28.9947 30.8725 28.9862 30.8725C28.0355 30.8639 27.2928 30.1188 27.3026 29.1841C27.3124 28.2706 28.0643 27.5539 29.0124 27.5493C29.9605 27.5539 30.713 28.2706 30.7222 29.1841C30.732 30.1188 29.9892 30.8632 29.0385 30.8725Z" fill="#00435B"/>
<path d="M40.9131 37.8134C40.9131 37.6595 40.9131 37.5333 40.9131 37.3906C42.2123 37.3906 43.4932 37.3906 44.7944 37.3906C44.7944 37.528 44.7944 37.6542 44.7944 37.8041C44.5354 37.822 44.2765 37.8239 44.0222 37.8609C43.6024 37.9217 43.5109 38.0347 43.5082 38.4713C43.5037 39.2639 43.5069 40.0573 43.5069 40.8499C43.5069 42.4465 43.5063 44.0437 43.5069 45.6402C43.5069 46.277 43.6371 46.4071 44.2765 46.4144C44.4387 46.4164 44.6008 46.4144 44.7885 46.4144C44.7885 46.5624 44.7885 46.6879 44.7885 46.8418C40.4816 46.8418 36.1636 46.8418 31.8253 46.8418C31.8253 46.7123 31.8253 46.5862 31.8253 46.4435C32.1209 46.4184 32.4105 46.3979 32.6989 46.3682C32.927 46.345 33.0474 46.211 33.0644 45.9784C33.0781 45.7816 33.1101 45.5848 33.1101 45.3873C33.1134 43.218 33.1121 41.0488 33.1121 38.8795C33.1121 37.9072 33.0506 37.8451 32.0738 37.8266C31.9992 37.8253 31.9247 37.8173 31.8279 37.8114C31.8279 37.672 31.8279 37.5452 31.8279 37.3959C33.114 37.3959 34.4041 37.3959 35.7065 37.3959C35.7065 37.5359 35.7065 37.6621 35.7065 37.8002C35.4123 37.8239 35.1331 37.8543 34.8533 37.8675C34.5656 37.8814 34.4577 38.0591 34.4244 38.3134C34.4145 38.3894 34.4159 38.4673 34.4159 38.5439C34.4152 41.0104 34.4152 43.4776 34.4165 45.9441C34.4165 46.0405 34.427 46.1376 34.4342 46.2572C35.5006 46.2572 36.55 46.2572 37.6367 46.2572C37.6367 46.1099 37.6367 45.9811 37.6367 45.8523C37.6367 43.4624 37.6367 41.0732 37.6367 38.6833C37.6367 37.9276 37.5484 37.8398 36.79 37.8266C36.6932 37.8253 36.5971 37.818 36.4781 37.8127C36.4781 37.674 36.4781 37.5478 36.4781 37.3966C37.6857 37.3966 38.9012 37.3966 40.1409 37.3966C40.1409 37.5148 40.1409 37.6403 40.1409 37.7995C39.9127 37.8193 39.6689 37.8431 39.4243 37.8609C39.117 37.8834 38.9804 38.0538 38.9836 38.3583C38.9849 38.4785 38.9627 38.5994 38.962 38.7203C38.9607 41.1102 38.9607 43.4994 38.9614 45.8893C38.9614 46.0075 38.9732 46.1257 38.9817 46.2816C39.506 46.2816 40.0049 46.2816 40.5032 46.2816C40.972 46.2816 41.4408 46.275 41.9089 46.2843C42.1077 46.2882 42.2058 46.242 42.2051 46.0115C42.1992 43.5007 42.2038 40.99 42.1986 38.4792C42.1979 38.0082 42.1018 37.9085 41.6324 37.8471C41.4074 37.8193 41.1779 37.8253 40.9131 37.8134Z" fill="#00435B"/>
<path d="M26.9325 41.8939C27.1777 41.989 27.3373 42.0491 27.4955 42.1132C28.1591 42.3827 28.6279 42.8543 28.8542 43.538C29.0294 44.0671 29.1497 44.6147 29.3099 45.1497C29.3818 45.3895 29.4636 45.6359 29.5943 45.8453C29.6774 45.9774 29.8735 46.1386 29.9925 46.1194C30.1364 46.0963 30.2841 45.9153 30.3711 45.7667C30.4554 45.622 30.4679 45.4337 30.5045 45.2627C30.5319 45.1345 30.5463 45.0037 30.5699 44.8531C30.6928 44.8531 30.8053 44.8531 30.9504 44.8531C30.9118 45.4899 30.8281 46.095 30.3946 46.5772C29.712 47.3361 28.3814 47.0547 28.0924 46.0593C27.9107 45.4324 27.8675 44.7659 27.7551 44.1179C27.6746 43.6549 27.621 43.1819 27.2961 42.8015C26.9162 42.3562 26.3879 42.3074 25.8694 42.2638C25.4692 42.2301 25.0645 42.2572 24.6199 42.2572C24.6133 42.3648 24.6022 42.4692 24.6022 42.5736C24.6009 43.6417 24.6003 44.7098 24.6022 45.7786C24.6029 46.2588 24.7382 46.3962 25.2266 46.4133C25.4529 46.4213 25.6791 46.4147 25.9236 46.4147C25.9236 46.5824 25.9236 46.708 25.9236 46.8513C24.6107 46.8513 23.3181 46.8513 21.9986 46.8513C21.9986 46.7172 21.9986 46.5924 21.9986 46.4147C22.2131 46.4147 22.4269 46.4213 22.64 46.4133C23.1213 46.3962 23.2736 46.2489 23.2743 45.7766C23.2775 43.3537 23.2775 40.9308 23.2743 38.5079C23.2736 38.0191 23.1317 37.8856 22.6472 37.883C22.4413 37.8817 22.2359 37.883 21.994 37.883C21.9868 37.737 21.9816 37.6128 21.9738 37.4583C23.2971 37.4583 24.5963 37.4583 25.9197 37.4583C25.9197 37.5917 25.9197 37.7172 25.9197 37.8836C25.6412 37.8836 25.3711 37.877 25.1018 37.8856C24.7735 37.8962 24.6055 38.0508 24.6035 38.3672C24.5976 39.4571 24.6016 40.5477 24.6029 41.6382C24.6029 41.6798 24.6166 41.7208 24.6251 41.7697C25.2214 41.7697 25.8105 41.8179 26.3885 41.7565C27.011 41.6911 27.2555 41.3826 27.3634 40.7465C27.4955 39.9683 27.5916 39.181 27.774 38.4147C28.0441 37.2766 29.3276 36.8301 30.258 37.5144C30.6882 37.8308 30.8268 38.4312 30.5784 38.8989C30.3652 39.2999 29.9134 39.4511 29.5198 39.2523C29.1425 39.0621 29.0628 38.7404 29.2295 38.2767C29.2739 38.1532 29.2465 37.9253 29.1621 37.8533C29.0673 37.772 28.8051 37.743 28.7306 37.8136C28.5423 37.9926 28.3435 38.2219 28.2834 38.4656C28.1127 39.1559 27.9957 39.8607 27.8839 40.5635C27.7936 41.1448 27.6831 41.697 26.9325 41.8939Z" fill="#00435B"/>
<path d="M16.0355 42.5947C16.0355 43.7269 16.0355 44.8168 16.0355 45.9067C16.0355 46.1511 16.1565 46.3136 16.3867 46.3546C16.6201 46.3962 16.8607 46.4021 17.098 46.4134C17.2798 46.4219 17.4629 46.4153 17.663 46.4153C17.663 46.5798 17.663 46.706 17.663 46.8506C16.1846 46.8506 14.7194 46.8506 13.2312 46.8506C13.2312 46.7106 13.2312 46.5851 13.2312 46.4153C13.5261 46.4153 13.8059 46.4213 14.0864 46.414C14.5598 46.4008 14.6827 46.2713 14.6827 45.7977C14.6834 43.3748 14.6834 40.9526 14.6827 38.5297C14.6827 38.0554 14.5297 37.8949 14.0649 37.885C13.7948 37.879 13.5241 37.8837 13.2319 37.8837C13.2319 37.7245 13.2319 37.599 13.2319 37.4503C13.3391 37.4424 13.4345 37.4299 13.53 37.4299C15.045 37.4285 16.5599 37.4226 18.0749 37.4318C18.9118 37.4365 19.6807 37.6426 20.3267 38.2311C21.2454 39.0687 21.4278 41.2241 19.8592 42.0478C19.2394 42.3734 18.596 42.5722 17.897 42.5782C17.3851 42.5828 16.8725 42.5782 16.3605 42.5795C16.2565 42.5795 16.1526 42.5888 16.0355 42.5947ZM16.0362 42.1323C16.1866 42.1323 16.2938 42.133 16.4004 42.1323C16.8797 42.129 17.3615 42.1574 17.8375 42.1145C18.7712 42.0299 19.3643 41.5874 19.4892 40.7921C19.5761 40.2385 19.5572 39.6539 19.4918 39.0944C19.4342 38.6037 19.1119 38.2192 18.647 38.0376C17.9193 37.7522 17.1589 37.7595 16.3978 37.8823C16.1565 37.9213 16.0401 38.0897 16.0388 38.3236C16.0342 39.576 16.0362 40.8297 16.0362 42.1323Z" fill="#00435B"/>
</g>
<defs>
<clipPath id="clip0_281_170">
<rect width="34" height="36" fill="white" transform="translate(12 11)"/>
</clipPath>
</defs>
</svg>
