<svg width="56" height="80" viewBox="0 0 56 80" fill="none" xmlns="http://www.w3.org/2000/svg">
<path d="M28 80C35.0311 55.904 56 50.912 56 28.8C56 13.312 42.5911 0 28 0C13.4089 0 0 13.312 0 28.8C0 50.912 20.9689 55.904 28 80Z" fill="#FFB734"/>
<g clip-path="url(#clip0_403_162)">
<path d="M28 17.5C21.4836 17.5 16.0376 22.1192 14.7095 28L27.3625 23.0714L30.55 23.9286L41.2905 28C39.9624 22.1192 34.5164 17.5 28 17.5Z" fill="#FFB734"/>
<path d="M26.0875 16.4288L27.3625 16.8574H28.6375L29.9125 16.4288L30.55 15.7859L30.7625 15.3574V14.7145V14.2859L30.3375 13.6431L28.6375 12.5716L28.2125 12.1431H28L26.3 13.2145L25.45 13.8574L25.2375 14.5002V15.3574L25.6625 16.0002L26.0875 16.4288Z" fill="#FFB734"/>
<path d="M28.3393 31.1465C28.1216 31.1465 27.9032 31.1465 27.6855 31.1465C22.4652 31.1465 17.2449 31.1465 12.0219 31.1465C12.0219 32.0211 12.0219 32.8725 12.0219 33.7312C12.3646 33.7312 12.6862 33.7312 13.004 33.7312C13.1381 33.0594 13.499 32.708 14.0619 32.6882C14.7413 32.6644 15.0917 32.9557 15.3173 33.7497C15.7554 33.7497 16.2013 33.7431 16.6466 33.753C16.8316 33.757 16.9251 33.7213 16.9866 33.5093C17.1167 33.0575 17.4489 32.7979 17.9137 32.7411C18.3616 32.6862 18.7317 32.85 18.9887 33.2233C19.0959 33.3791 19.1528 33.5707 19.2339 33.7497C19.7027 33.7497 20.161 33.759 20.6174 33.7418C20.705 33.7385 20.8358 33.6513 20.8678 33.5714C21.0842 33.0251 21.4478 32.7298 21.9519 32.7239C22.4527 32.7179 22.8405 33.0185 23.0504 33.5529C23.0817 33.6328 23.1824 33.7385 23.2544 33.7411C23.7631 33.7576 24.2724 33.7497 24.7713 33.7497C24.9602 33.0852 25.3401 32.745 25.8881 32.7239C26.4517 32.7021 26.8309 33.0211 27.0911 33.7497C27.3958 33.7497 27.7038 33.7524 28.0131 33.7504C28.3217 33.7524 28.6296 33.7497 28.935 33.7497C29.1952 33.0211 29.5751 32.7021 30.1381 32.7239C30.686 32.745 31.0659 33.0852 31.2548 33.7497C31.7537 33.7497 32.2631 33.757 32.7717 33.7411C32.8437 33.7391 32.9444 33.6335 32.9757 33.5529C33.1856 33.0185 33.5734 32.7179 34.0742 32.7239C34.5783 32.7298 34.9412 33.0244 35.1583 33.5714C35.1903 33.652 35.3211 33.7385 35.4087 33.7418C35.8657 33.759 36.3234 33.7497 36.7922 33.7497C36.8733 33.5707 36.9302 33.3791 37.0374 33.2233C37.2944 32.8494 37.6645 32.6862 38.1124 32.7411C38.5772 32.7979 38.9094 33.0575 39.0395 33.5093C39.1003 33.7213 39.1945 33.757 39.3795 33.753C39.8248 33.7438 40.2707 33.7497 40.7088 33.7497C40.9344 32.9551 41.2848 32.6638 41.9642 32.6882C42.5271 32.708 42.8881 33.0588 43.0221 33.7312C43.3399 33.7312 43.6616 33.7312 44.0042 33.7312C44.0042 32.8725 44.0042 32.0211 44.0042 31.1465C38.7799 31.1465 33.5603 31.1465 28.3393 31.1465Z" fill="#00435B"/>
<path d="M43.0627 28.5137C38.1673 26.4442 33.272 24.3747 28.372 22.3151C28.2694 22.2721 28.1347 22.2569 28.0124 22.2715C27.8902 22.2569 27.7555 22.2721 27.6528 22.3151C22.7535 24.3747 17.8575 26.4442 12.9622 28.5137C12.3254 28.7825 11.6918 29.058 11.0059 29.3519C11.5362 29.7245 12.0422 30.0329 12.4914 30.4101C12.8707 30.7292 13.1897 30.6704 13.5585 30.4055C13.5082 30.2985 13.431 30.1941 13.4147 30.0818C13.4016 29.9887 13.4304 29.8308 13.4925 29.7958C13.7743 29.6386 14.0744 29.5151 14.385 29.3711C14.4974 29.5924 14.5942 29.7833 14.6955 29.9827C15.0342 29.844 15.3435 29.7172 15.6678 29.5838C15.5913 29.3896 15.5246 29.2198 15.4442 29.0144C15.7868 28.8525 16.1164 28.696 16.4629 28.5322C16.578 28.7502 16.6774 28.9384 16.782 29.1366C17.1331 28.9906 17.4476 28.8598 17.7647 28.7277C17.681 28.5143 17.615 28.3446 17.5391 28.151C17.8955 27.9859 18.225 27.8326 18.563 27.6761C18.6768 27.902 18.7684 28.085 18.869 28.2845C19.2234 28.1391 19.5517 28.0044 19.8917 27.865C19.7975 27.6424 19.7171 27.4542 19.6236 27.2329C19.976 27.0657 20.3055 26.9099 20.6527 26.7454C20.7757 26.9891 20.8809 27.1992 20.9921 27.4205C21.3792 27.2613 21.7277 27.1186 22.0919 26.9693C22.0101 26.7626 21.9389 26.5829 21.8545 26.3702C22.1997 26.207 22.5299 26.0511 22.8745 25.8886C22.9896 26.1152 23.087 26.3074 23.1962 26.5228C23.5375 26.3821 23.8625 26.2486 24.1868 26.1152C24.0985 25.8926 24.0272 25.7136 23.9455 25.5088C24.3032 25.343 24.6327 25.1904 24.9734 25.0332C25.0891 25.2677 25.1852 25.4613 25.2892 25.6726C25.6174 25.5366 25.9214 25.4097 26.2287 25.2823C26.1346 25.053 26.0574 24.8655 25.9692 24.6521C26.3314 24.4843 26.6609 24.3317 26.9996 24.1752C27.1212 24.4202 27.2226 24.6224 27.3449 24.8688C27.5711 24.6838 27.796 24.621 28.0131 24.631C28.2302 24.621 28.4544 24.6838 28.6813 24.8688C28.8036 24.6224 28.9049 24.4202 29.0265 24.1752C29.3652 24.3317 29.6948 24.4843 30.057 24.6521C29.9694 24.8655 29.8922 25.0537 29.7974 25.2823C30.1041 25.4097 30.4088 25.5366 30.737 25.6726C30.841 25.4619 30.9371 25.2677 31.0528 25.0332C31.3928 25.1904 31.723 25.3437 32.0807 25.5088C31.9989 25.7143 31.9277 25.8933 31.8394 26.1152C32.1644 26.2486 32.4887 26.3821 32.83 26.5228C32.9392 26.3074 33.0366 26.1152 33.1517 25.8886C33.4969 26.0518 33.8264 26.2077 34.1717 26.3702C34.0873 26.5829 34.016 26.7626 33.9343 26.9693C34.2979 27.1186 34.6464 27.2619 35.0341 27.4205C35.1452 27.1992 35.2512 26.9891 35.3734 26.7454C35.7206 26.9099 36.0502 27.0657 36.4026 27.2329C36.3084 27.4542 36.2287 27.6424 36.1345 27.865C36.4745 28.0044 36.8027 28.1391 37.1571 28.2845C37.2572 28.085 37.3494 27.902 37.4631 27.6761C37.8012 27.8326 38.1307 27.9859 38.487 28.151C38.4112 28.3446 38.3452 28.5143 38.2615 28.7277C38.5786 28.8598 38.8931 28.9906 39.2442 29.1366C39.3488 28.9384 39.4482 28.7502 39.5633 28.5322C39.9092 28.696 40.2394 28.8525 40.582 29.0144C40.5015 29.2191 40.4349 29.3889 40.3584 29.5838C40.6827 29.7165 40.9919 29.8434 41.3306 29.9827C41.432 29.7833 41.5287 29.5924 41.6412 29.3711C41.9518 29.5151 42.2519 29.6386 42.5337 29.7958C42.5958 29.8302 42.6246 29.9887 42.6115 30.0818C42.5952 30.1948 42.518 30.2985 42.4677 30.4055C42.8364 30.6704 43.1555 30.7292 43.5347 30.4101C43.9839 30.0323 44.49 29.7245 45.0203 29.3519C44.3331 29.058 43.6995 28.7825 43.0627 28.5137Z" fill="#00435B"/>
<path d="M30.1152 17.2997C30.0282 16.8909 30.0191 16.5659 30.4447 16.2567C31.3915 15.5698 31.2418 14.0095 30.2028 13.2988C29.9877 13.1515 29.7333 12.9963 29.5234 12.843C29.1213 12.5484 28.7356 12.2961 28.3505 11.979C28.3008 11.9381 28.27 11.8462 28.2681 11.7762C28.2596 11.4704 28.2641 11.1639 28.2641 10.8382C28.4185 10.8277 28.5446 10.8191 28.6996 10.8079C28.7075 10.7035 28.7153 10.5998 28.7258 10.469C28.5747 10.4558 28.4394 10.4432 28.2805 10.4294C28.27 10.3091 28.2596 10.1275 28.2478 10C28.1654 10 28.0902 10 28.0124 10C27.9346 10 27.8594 10 27.777 10C27.7659 10.1268 27.7555 10.3085 27.7443 10.4294C27.5855 10.4439 27.4501 10.4558 27.2991 10.469C27.3089 10.5998 27.3174 10.7035 27.3252 10.8079C27.4802 10.8184 27.607 10.827 27.7607 10.8382C27.7607 11.1639 27.7659 11.4704 27.7568 11.7762C27.7548 11.8456 27.7241 11.9374 27.6744 11.979C27.2886 12.2961 26.9035 12.5484 26.5014 12.843C26.2921 12.9963 26.0371 13.1515 25.822 13.2988C24.7824 14.0102 24.6333 15.5698 25.5801 16.2567C26.0058 16.5659 25.9966 16.8909 25.9096 17.2997C19.3516 18.4266 15.6658 23.7124 14.7537 27.4478C15.2918 27.2681 15.2611 27.2549 15.4723 26.7383C15.7933 25.9543 16.0941 25.1491 16.5263 24.4277C17.2011 23.3008 17.9608 22.2202 18.9619 21.3496C19.5346 20.8515 20.1022 20.3422 20.7142 19.897C21.6047 19.2497 22.6071 18.8091 23.6369 18.4339C25.0511 17.9187 26.4994 17.6459 28.0118 17.704C29.5241 17.6459 30.9724 17.9187 32.3866 18.4339C33.4165 18.8091 34.4195 19.2497 35.3093 19.897C35.9213 20.3422 36.4889 20.8515 37.0616 21.3496C38.0633 22.2202 38.8224 23.3008 39.4972 24.4277C39.9294 25.1491 40.2302 25.9543 40.5512 26.7383C40.7624 27.2549 40.7317 27.2675 41.2698 27.4478C40.359 23.7124 36.6733 18.4266 30.1152 17.2997ZM28.0124 16.3783C27.6476 16.3783 27.2827 16.377 26.9179 16.3783C26.2634 16.3809 25.6873 16.0117 25.4676 15.4456C25.2447 14.8716 25.4055 14.2275 25.9077 13.7711C26.1078 13.5888 26.332 13.4316 26.5556 13.2777C26.9591 12.9996 27.3631 12.7215 27.7823 12.4685C27.8385 12.4348 27.93 12.4236 28.0131 12.4341C28.0961 12.4236 28.1876 12.4341 28.2439 12.4685C28.6623 12.7215 29.0671 12.9996 29.4705 13.2777C29.6934 13.4316 29.9177 13.5888 30.1185 13.7711C30.6206 14.2275 30.7815 14.8716 30.5585 15.4456C30.3388 16.0117 29.7628 16.3809 29.1083 16.3783C28.7421 16.377 28.3773 16.3783 28.0124 16.3783Z" fill="#00435B"/>
<path d="M28.0608 25.8537C28.0445 25.8537 28.0288 25.8544 28.0124 25.8544C27.9961 25.8544 27.9804 25.853 27.964 25.8537C26.7407 25.8629 25.6749 26.935 25.6815 28.1491C25.688 29.3691 26.7642 30.4386 27.981 30.4353C27.9915 30.4353 28.002 30.4346 28.0124 30.4346C28.0229 30.4346 28.0333 30.4353 28.0438 30.4353C29.2606 30.4386 30.3362 29.3691 30.3434 28.1491C30.3499 26.935 29.2841 25.8629 28.0608 25.8537ZM28.0386 29.8725C28.0301 29.8725 28.0209 29.8718 28.0124 29.8718C28.0039 29.8718 27.9948 29.8725 27.9863 29.8725C27.0356 29.8639 26.2928 29.1188 26.3026 28.1841C26.3124 27.2706 27.0643 26.5539 28.0124 26.5493C28.9605 26.5539 29.7131 27.2706 29.7222 28.1841C29.732 29.1188 28.9893 29.8632 28.0386 29.8725Z" fill="#00435B"/>
<path d="M39.9131 36.8134C39.9131 36.6595 39.9131 36.5333 39.9131 36.3906C41.2123 36.3906 42.4932 36.3906 43.7943 36.3906C43.7943 36.528 43.7943 36.6542 43.7943 36.8041C43.5354 36.822 43.2765 36.8239 43.0221 36.8609C42.6024 36.9217 42.5108 37.0347 42.5082 37.4713C42.5036 38.2639 42.5069 39.0573 42.5069 39.8499C42.5069 41.4465 42.5062 43.0437 42.5069 44.6402C42.5069 45.277 42.637 45.4071 43.2765 45.4144C43.4386 45.4164 43.6008 45.4144 43.7884 45.4144C43.7884 45.5624 43.7884 45.6879 43.7884 45.8418C39.4816 45.8418 35.1636 45.8418 30.8253 45.8418C30.8253 45.7123 30.8253 45.5862 30.8253 45.4435C31.1208 45.4184 31.4105 45.3979 31.6988 45.3682C31.927 45.345 32.0473 45.211 32.0643 44.9784C32.0781 44.7816 32.1101 44.5848 32.1101 44.3873C32.1134 42.218 32.1121 40.0488 32.1121 37.8795C32.1121 36.9072 32.0506 36.8451 31.0737 36.8266C30.9992 36.8253 30.9247 36.8173 30.8279 36.8114C30.8279 36.672 30.8279 36.5452 30.8279 36.3959C32.114 36.3959 33.4041 36.3959 34.7065 36.3959C34.7065 36.5359 34.7065 36.6621 34.7065 36.8002C34.4123 36.8239 34.1331 36.8543 33.8532 36.8675C33.5656 36.8814 33.4577 37.0591 33.4243 37.3134C33.4145 37.3894 33.4158 37.4673 33.4158 37.5439C33.4152 40.0104 33.4152 42.4776 33.4165 44.9441C33.4165 45.0405 33.4269 45.1376 33.4341 45.2572C34.5006 45.2572 35.55 45.2572 36.6367 45.2572C36.6367 45.1099 36.6367 44.9811 36.6367 44.8523C36.6367 42.4624 36.6367 40.0732 36.6367 37.6833C36.6367 36.9276 36.5484 36.8398 35.7899 36.8266C35.6932 36.8253 35.5971 36.818 35.4781 36.8127C35.4781 36.674 35.4781 36.5478 35.4781 36.3966C36.6857 36.3966 37.9012 36.3966 39.1409 36.3966C39.1409 36.5148 39.1409 36.6403 39.1409 36.7995C38.9127 36.8193 38.6688 36.8431 38.4243 36.8609C38.117 36.8834 37.9803 37.0538 37.9836 37.3583C37.9849 37.4785 37.9627 37.5994 37.962 37.7203C37.9607 40.1102 37.9607 42.4994 37.9614 44.8893C37.9614 45.0075 37.9731 45.1257 37.9816 45.2816C38.506 45.2816 39.0049 45.2816 39.5031 45.2816C39.9719 45.2816 40.4407 45.275 40.9089 45.2843C41.1077 45.2882 41.2057 45.242 41.2051 45.0115C41.1992 42.5007 41.2038 39.99 41.1986 37.4792C41.1979 37.0082 41.1018 36.9085 40.6323 36.8471C40.4074 36.8193 40.1779 36.8253 39.9131 36.8134Z" fill="#00435B"/>
<path d="M25.9326 40.8939C26.1777 40.989 26.3373 41.0491 26.4955 41.1132C27.1592 41.3827 27.628 41.8543 27.8542 42.538C28.0294 43.0671 28.1497 43.6147 28.3099 44.1497C28.3819 44.3895 28.4636 44.6359 28.5944 44.8453C28.6774 44.9774 28.8736 45.1386 28.9926 45.1194C29.1364 45.0963 29.2842 44.9153 29.3711 44.7667C29.4555 44.622 29.4679 44.4337 29.5045 44.2627C29.532 44.1345 29.5464 44.0037 29.5699 43.8531C29.6928 43.8531 29.8053 43.8531 29.9504 43.8531C29.9119 44.4899 29.8282 45.095 29.3947 45.5772C28.7121 46.3361 27.3815 46.0547 27.0925 45.0593C26.9107 44.4324 26.8676 43.7659 26.7551 43.1179C26.6747 42.6549 26.6211 42.1819 26.2961 41.8015C25.9162 41.3562 25.3879 41.3074 24.8694 41.2638C24.4692 41.2301 24.0645 41.2572 23.6199 41.2572C23.6134 41.3648 23.6022 41.4692 23.6022 41.5736C23.6009 42.6417 23.6003 43.7098 23.6022 44.7786C23.6029 45.2588 23.7382 45.3962 24.2267 45.4133C24.4529 45.4213 24.6791 45.4147 24.9237 45.4147C24.9237 45.5824 24.9237 45.708 24.9237 45.8513C23.6107 45.8513 22.3181 45.8513 20.9986 45.8513C20.9986 45.7172 20.9986 45.5924 20.9986 45.4147C21.2131 45.4147 21.4269 45.4213 21.6401 45.4133C22.1213 45.3962 22.2736 45.2489 22.2743 44.7766C22.2776 42.3537 22.2776 39.9308 22.2743 37.5079C22.2736 37.0191 22.1317 36.8856 21.6472 36.883C21.4413 36.8817 21.236 36.883 20.9941 36.883C20.9869 36.737 20.9816 36.6128 20.9738 36.4583C22.2972 36.4583 23.5964 36.4583 24.9197 36.4583C24.9197 36.5917 24.9197 36.7172 24.9197 36.8836C24.6412 36.8836 24.3712 36.877 24.1018 36.8856C23.7736 36.8962 23.6055 37.0508 23.6036 37.3672C23.5977 38.4571 23.6016 39.5477 23.6029 40.6382C23.6029 40.6798 23.6166 40.7208 23.6251 40.7697C24.2214 40.7697 24.8106 40.8179 25.3886 40.7565C26.011 40.6911 26.2556 40.3826 26.3634 39.7465C26.4955 38.9683 26.5916 38.181 26.7741 37.4147C27.0441 36.2766 28.3276 35.8301 29.258 36.5144C29.6882 36.8308 29.8269 37.4312 29.5784 37.8989C29.3652 38.2999 28.9134 38.4511 28.5198 38.2523C28.1426 38.0621 28.0628 37.7404 28.2295 37.2767C28.274 37.1532 28.2465 36.9253 28.1622 36.8533C28.0674 36.772 27.8052 36.743 27.7306 36.8136C27.5423 36.9926 27.3436 37.2219 27.2834 37.4656C27.1127 38.1559 26.9957 38.8607 26.8839 39.5635C26.7937 40.1448 26.6832 40.697 25.9326 40.8939Z" fill="#00435B"/>
<path d="M15.0355 41.5947C15.0355 42.7269 15.0355 43.8168 15.0355 44.9067C15.0355 45.1511 15.1565 45.3136 15.3867 45.3546C15.6201 45.3962 15.8607 45.4021 16.098 45.4134C16.2798 45.4219 16.4629 45.4153 16.663 45.4153C16.663 45.5798 16.663 45.706 16.663 45.8506C15.1846 45.8506 13.7194 45.8506 12.2312 45.8506C12.2312 45.7106 12.2312 45.5851 12.2312 45.4153C12.5261 45.4153 12.8059 45.4213 13.0864 45.414C13.5598 45.4008 13.6827 45.2713 13.6827 44.7977C13.6834 42.3748 13.6834 39.9526 13.6827 37.5297C13.6827 37.0554 13.5297 36.8949 13.0649 36.885C12.7948 36.879 12.5241 36.8837 12.2319 36.8837C12.2319 36.7245 12.2319 36.599 12.2319 36.4503C12.3391 36.4424 12.4345 36.4299 12.53 36.4299C14.045 36.4285 15.5599 36.4226 17.0749 36.4318C17.9118 36.4365 18.6807 36.6426 19.3267 37.2311C20.2454 38.0687 20.4278 40.2241 18.8592 41.0478C18.2394 41.3734 17.596 41.5722 16.897 41.5782C16.3851 41.5828 15.8725 41.5782 15.3605 41.5795C15.2565 41.5795 15.1526 41.5888 15.0355 41.5947ZM15.0362 41.1323C15.1866 41.1323 15.2938 41.133 15.4004 41.1323C15.8797 41.129 16.3615 41.1574 16.8375 41.1145C17.7712 41.0299 18.3643 40.5874 18.4892 39.7921C18.5761 39.2385 18.5572 38.6539 18.4918 38.0944C18.4342 37.6037 18.1119 37.2192 17.647 37.0376C16.9193 36.7522 16.1589 36.7595 15.3978 36.8823C15.1565 36.9213 15.0401 37.0897 15.0388 37.3236C15.0342 38.576 15.0362 39.8297 15.0362 41.1323Z" fill="#00435B"/>
</g>
<defs>
<clipPath id="clip0_403_162">
<rect width="34" height="36" fill="white" transform="translate(11 10)"/>
</clipPath>
</defs>
</svg>
