<svg width="48" height="82" fill="none" xmlns="http://www.w3.org/2000/svg">
  <path d="m6.43 18.725 22.117 12.767m9.118-5.613-9.123 5.613V81l9.123-5.608V25.895L11.621 10.858a4.797 4.797 0 0 0-5.47.467l-3.986 3.31A3.223 3.223 0 0 0 1 17.11v44.844a5.438 5.438 0 0 0 2.72 4.712L28.543 81" stroke="#00435B" stroke-width="2" stroke-miterlimit="10" stroke-linecap="round" stroke-linejoin="round"/>
  <path d="m37.762 71.785 9.123-5.608V16.68L20.841 1.643a4.798 4.798 0 0 0-5.469.467l-4.664 3.987m36.177 10.567-9.123 5.614m-23.389 6.424-4.143 7.685m4.143-7.685 3.832 11.055m-6.397-6.3 5.125 2.962m-4.754 4.862V51.36m0 0 1.862 1.073c1.39.805 2.517.328 2.517-1.062 0-1.39-1.127-3.172-2.517-3.972l-1.862-1.073M16 43.5l-3.821-2.214m0 14.995V66.36m0 0 1.862 1.073c1.39.805 2.517.328 2.517-1.062 0-1.39-1.127-3.172-2.517-3.972l-1.862-1.073m1.861 1.067c1.39.805 2.518.328 2.518-1.062 0-1.39-1.127-3.172-2.517-3.972l-1.862-1.073m29.393-36.353L16.934 6.436" stroke="#00435B" stroke-width="2" stroke-miterlimit="10" stroke-linecap="round" stroke-linejoin="round"/>
  <path d="M32.298 34.16V74.5l2.383-1.464V32.695l-2.383 1.465Z" fill="#FFB734"/>
</svg>
