<svg width="66" height="74" viewBox="0 0 66 74" fill="none" xmlns="http://www.w3.org/2000/svg">
<path d="M42.7491 20.0233L58.4875 29.2007C59.0582 29.5344 59.0582 30.3687 58.4875 30.7025L43.8754 39.2227C42.5438 40.0014 41.9131 40.8256 41.9131 42.1707C41.9131 43.5157 43.0544 44.5725 44.391 43.7988L59.779 34.8236L57.9919 33.6454" stroke="#00435B" stroke-width="2" stroke-miterlimit="10" stroke-linecap="round" stroke-linejoin="round"/>
<path d="M42.6387 43.7735L25.9491 34.0449C25.4736 33.7668 25.1082 33.3269 24.963 32.7959C24.8729 32.4673 24.8879 32.2296 24.8879 32.2447C24.8879 30.8997 25.5186 30.0704 26.8502 29.2968L42.7488 20.0233" stroke="#00435B" stroke-width="2" stroke-miterlimit="10" stroke-linecap="round" stroke-linejoin="round"/>
<path d="M26.8501 29.2917L40.0606 36.6944" stroke="#00435B" stroke-width="2" stroke-miterlimit="10" stroke-linecap="round" stroke-linejoin="round"/>
<path d="M44.0554 35.6123L53.7668 29.9491L42.7489 23.5223L32.9124 29.2615L44.0554 35.6123Z" fill="#FFB734"/>
<path d="M59.0181 49.4115L29.7788 66.6136C28.4923 67.3721 26.9004 67.3772 25.6039 66.6237L7.6028 56.1265C6.40139 55.4287 5.66553 54.1343 5.66553 52.7336V27.8659C5.66553 26.1922 6.54657 24.6499 7.97824 23.8055L38.5391 5.82971" stroke="#00435B" stroke-width="2" stroke-miterlimit="10" stroke-linecap="round" stroke-linejoin="round"/>
<path d="M56.425 40.8964L63.4081 44.9668C64.3943 45.5432 65 46.6051 65 47.7529V49.8514C65 50.9942 64.3993 52.056 63.4181 52.6325L29.7687 72.4285C28.4872 73.182 26.9054 73.1921 25.6138 72.4488L2.9573 59.4031C1.74588 58.7053 1 57.4058 1 56.0001V25.2416C1 23.5679 1.88103 22.0256 3.31271 21.1812L37.0122 1.35972C37.8131 0.889466 38.8043 0.879451 39.6153 1.33453L41.1821 2.21436C42.2884 2.8363 42.9742 4.01438 42.9742 5.29367V16.1853" stroke="#00435B" stroke-width="2" stroke-miterlimit="10" stroke-linecap="round" stroke-linejoin="round"/>
<path d="M12.3584 51.0548L33.4581 38.6462" stroke="#00435B" stroke-width="2" stroke-miterlimit="10" stroke-linecap="round" stroke-linejoin="round"/>
</svg>
