<svg width="65" height="75" viewBox="0 0 65 75" fill="none" xmlns="http://www.w3.org/2000/svg">
<path d="M6.03995 56.3717C2.24323 50.1894 3.6544 38.6984 5.01517 34.5993L8.7951 33.6753C8.7951 33.6753 7.83752 27.9635 12.155 22.4364C17.3461 15.7837 32.1802 2.56237 60.706 1C50.2735 12.6254 42.8312 32.4322 40.9832 35.3553C37.1025 37.9929 33.3226 39.7736 33.3226 39.7736L36.7665 43.1335C36.7665 43.1335 17.6653 59.5468 6.03995 56.3717Z" stroke="#00435B" stroke-width="2" stroke-miterlimit="10" stroke-linejoin="round"/>
<path d="M38.5136 17.4302C16.7581 33.9274 5.48551 54.8262 1 68.5347" stroke="#00435B" stroke-width="2" stroke-miterlimit="10" stroke-linecap="round"/>
<path d="M5.26709 70.2146C7.58544 68.7362 20.4876 62.134 17.0269 70.2146C13.5661 78.2953 34.0113 66.4179 37.2536 64.4691C40.2608 62.6716 44.0239 60.6556 48.2406 59.3452C56.3381 56.8253 66.0147 59.53 62.3859 68.5178" stroke="#FFB734" stroke-width="3" stroke-miterlimit="10"/>
</svg>
