<svg width="64" height="74" viewBox="0 0 64 74" fill="none" xmlns="http://www.w3.org/2000/svg">
<path d="M22.372 73C23.1559 70.5914 23.1022 67.6008 22.5546 64.9198C22.2378 63.3497 21.0244 62.1001 19.462 61.7155C18.0123 61.3577 16.5197 61.1869 15.0271 61.2082C13.4862 61.2349 11.9453 61.4646 10.4097 61.3204C6.88223 60.9946 4.71849 58.6341 6.21109 54.9545C6.99498 53.1814 6.17351 52.0546 5.60438 51.0399C3.92923 48.0599 6.38825 47.387 6.42583 45.3043C6.44194 44.375 5.69028 43.638 4.76143 43.5419C3.41916 43.3977 2.26482 42.8263 1.54536 42.1C0.922549 41.4644 0.825888 40.4818 1.293 39.7235C7.45133 29.7528 6.20033 32.3803 8.33185 18.3348C9.72781 9.14918 19.9989 -1.75076 40.5624 1.62976C44.8738 2.34005 49.1798 3.59508 52.7932 6.0517C61.1743 11.7447 65.679 23.7394 61.2925 37.6887C58.8281 45.5285 53.3355 53.9345 55.0214 62.6715L57.4106 72.4339" stroke="#344154" stroke-width="2" stroke-miterlimit="10" stroke-linecap="round" stroke-linejoin="round"/>
<path d="M28.0419 44.7221V45.6994C28.0419 49.0319 30.7586 51.7395 34.1143 51.7395H36.7129C40.0632 51.7395 42.7854 49.0372 42.7854 45.6994V44.7221L42.6994 41.4003V41.3523C42.6994 39.2802 43.5048 37.2828 44.9813 35.8249C47.4672 33.3789 49.0027 29.9824 49.0027 26.228C49.0027 18.447 42.388 12.1986 34.4472 12.7433C27.8163 13.1973 22.4151 18.495 21.8674 25.0852C21.5238 29.2294 23.0647 33.0211 25.7224 35.7074C27.2257 37.2241 28.1224 39.2268 28.1224 41.3576V41.4057H35.4082" stroke="#344154" stroke-width="2" stroke-miterlimit="10" stroke-linecap="round" stroke-linejoin="round"/>
<path d="M31.1235 51.5151V53.0157C31.1235 55.3709 33.0403 57.2828 35.4081 57.2828C37.7758 57.2828 39.698 55.3762 39.698 53.0157V51.5044" stroke="#344154" stroke-width="2" stroke-miterlimit="10" stroke-linecap="round" stroke-linejoin="round"/>
<path d="M35.4136 9.54428V6.44678" stroke="#344154" stroke-width="2" stroke-miterlimit="10" stroke-linecap="round" stroke-linejoin="round"/>
<path d="M29.6686 10.6767L28.6055 7.76074" stroke="#344154" stroke-width="2" stroke-miterlimit="10" stroke-linecap="round" stroke-linejoin="round"/>
<path d="M24.6646 13.6886L22.6619 11.312" stroke="#344154" stroke-width="2" stroke-miterlimit="10" stroke-linecap="round" stroke-linejoin="round"/>
<path d="M20.9975 18.2279L18.2969 16.6738" stroke="#344154" stroke-width="2" stroke-miterlimit="10" stroke-linecap="round" stroke-linejoin="round"/>
<path d="M41.1531 10.6767L42.2162 7.76074" stroke="#344154" stroke-width="2" stroke-miterlimit="10" stroke-linecap="round" stroke-linejoin="round"/>
<path d="M46.157 13.6886L48.1597 11.312" stroke="#344154" stroke-width="2" stroke-miterlimit="10" stroke-linecap="round" stroke-linejoin="round"/>
<path d="M49.8242 18.2279L52.5248 16.6738" stroke="#344154" stroke-width="2" stroke-miterlimit="10" stroke-linecap="round" stroke-linejoin="round"/>
<path d="M35.4136 57.2776V72.9999" stroke="#344154" stroke-width="2" stroke-miterlimit="10" stroke-linecap="round" stroke-linejoin="round"/>
<path d="M35.4136 15.9155C35.1666 15.9155 34.9197 15.9262 34.6673 15.9423C29.8727 16.2734 25.9157 19.9369 25.1748 24.5992C26.1735 23.8301 27.258 23.1732 28.4123 22.6552C32.7559 20.7113 37.9639 20.786 42.2538 22.8475C43.5048 23.4456 44.6645 24.22 45.7169 25.1172C45.4538 22.6605 44.3317 20.4069 42.4847 18.6926C40.5411 16.8875 38.0552 15.9155 35.4136 15.9155Z" fill="#FFB734"/>
</svg>
