<svg width="64" height="74" viewBox="0 0 64 74" fill="none" xmlns="http://www.w3.org/2000/svg">
<path d="M27.7433 13.9461C28.8438 11.6993 28.6907 8.93479 27.0513 6.85863C25.202 4.50945 21.3559 2.24001 13.7886 1C13.2043 8.66756 14.4977 12.9506 16.3299 15.3055C18.6103 18.2349 22.8931 18.6331 25.8089 16.3351" stroke="#00435B" stroke-width="2" stroke-miterlimit="10" stroke-linecap="round" stroke-linejoin="round"/>
<path d="M46.8204 36.5221C48.2215 34.81 49.4355 33.3083 49.583 33.0637C52.5328 28.1947 49.844 21.9378 44.3585 20.4703C44.3358 20.4646 44.3188 20.4589 44.2961 20.4532C41.1818 19.6227 37.9371 19.3952 34.7207 19.6057C34.3293 19.6341 33.9208 19.6625 33.4954 19.6966" stroke="#00435B" stroke-width="2" stroke-miterlimit="10" stroke-linecap="round" stroke-linejoin="round"/>
<path d="M25.3948 21.0676C24.6176 21.3179 23.8292 21.5626 23.052 21.864C7.10627 28.0413 -1.66363 43.8372 3.46443 57.1417C8.59249 70.4461 26.1379 77.323 41.6185 70.0479C54.1778 64.1437 59.6745 56.9824 61.7223 50.4695C63.4411 45.0033 56.7815 40.9249 52.7142 44.9464C51.0408 46.5959 49.3503 47.9439 47.9548 48.9564C46.1509 50.259 43.6777 50.0315 42.1233 48.4388C40.3762 46.6471 40.4387 43.7746 42.2369 42.034" stroke="#00435B" stroke-width="2" stroke-miterlimit="10" stroke-linecap="round" stroke-linejoin="round"/>
<path d="M25.8145 16.3352L50.7967 46.721" stroke="#00435B" stroke-width="2" stroke-miterlimit="10" stroke-linecap="round" stroke-linejoin="round"/>
<path d="M15.3032 33.2629C16.6306 34.4006 17.4757 36.0899 17.4757 37.9784C17.4757 41.4026 14.7075 44.1841 11.2869 44.1841C10.3169 44.1841 9.40359 43.9508 8.58105 43.5526C9.82903 39.6904 11.9563 36.3459 15.3032 33.2629Z" fill="#FFB734"/>
<path d="M7.78133 51.1064C8.41667 50.8846 9.09729 50.7595 9.81204 50.7595C13.227 50.7595 16.001 53.5353 16.001 56.9652C16.001 58.9731 15.0479 60.7477 13.5731 61.8853C11.4175 59.94 9.22206 57.8867 8.22935 55.3043C7.69613 53.9107 7.57712 52.8128 7.78133 51.1064Z" fill="#FFB734"/>
<path d="M20.4823 65.9182C20.9077 62.9092 23.4831 60.5942 26.6031 60.5942C30.018 60.5942 32.7919 63.37 32.7919 66.7999C32.7919 66.8454 32.7862 66.8852 32.7862 66.9307C31.3624 67.1696 26.6371 68.512 20.4823 65.9182Z" fill="#FFB734"/>
</svg>
