<svg width="74" height="59" viewBox="0 0 74 59" fill="none" xmlns="http://www.w3.org/2000/svg">
<path d="M34.9624 9.62604C35.6349 8.42229 36.3708 7.24292 37.1555 6.10252C38.3885 4.31395 39.8018 2.35483 40.9617 1L41.4637 1.5604C49.3441 10.3473 60.4507 15.562 72.2445 16.0104L73 16.0396C72.7027 17.7989 72.0983 20.1382 71.5086 22.2289C70.0027 27.5654 67.5368 32.5948 64.0863 36.9322C52.3949 51.6501 37.3505 50.3343 37.3505 50.3343C37.3505 50.3343 36.5707 49.5448 35.5083 48.0291" stroke="#00435B" stroke-width="2" stroke-miterlimit="10" stroke-linecap="round" stroke-linejoin="round"/>
<path d="M47.5068 20.9958C46.1764 21.7609 44.2417 21.7999 42.4336 20.9519" stroke="#00435B" stroke-width="2" stroke-miterlimit="10" stroke-linecap="round" stroke-linejoin="round"/>
<path d="M61.8154 27.7164C60.4849 28.4816 58.5501 28.5205 56.742 27.6725C54.9047 26.8099 53.6863 25.2602 53.4573 23.7202" stroke="#00435B" stroke-width="2" stroke-miterlimit="10" stroke-linecap="round" stroke-linejoin="round"/>
<path d="M50.6647 38.0873C48.6958 39.2179 45.8352 39.2763 43.1645 38.0239C42.3409 37.6389 41.6001 37.1564 40.9568 36.6106" stroke="#00435B" stroke-width="2" stroke-miterlimit="10" stroke-linecap="round" stroke-linejoin="round"/>
<path d="M37.5747 11.3221L38.2667 11.0298C38.7443 12.7501 39.1878 15.1234 39.5436 17.2677C40.4501 22.7358 40.3525 28.3403 39.0756 33.7304C34.7431 52.0206 20.571 57.2255 20.571 57.2255C20.571 57.2255 6.39896 52.0206 2.06643 33.7304C0.789579 28.3354 0.692129 22.7358 1.5986 17.2677C1.95436 15.1234 2.40278 12.7501 2.87551 11.0298L3.5675 11.3221C14.4354 15.9276 26.7068 15.9276 37.5747 11.3221Z" stroke="#00435B" stroke-width="2" stroke-miterlimit="10" stroke-linecap="round" stroke-linejoin="round"/>
<path d="M17.3009 26.3471C16.4236 27.6045 14.6887 28.4622 12.6906 28.4622C10.6583 28.4622 8.89898 27.5752 8.03638 26.2837" stroke="#00435B" stroke-width="2" stroke-miterlimit="10" stroke-linecap="round" stroke-linejoin="round"/>
<path d="M33.1057 26.3471C32.2285 27.6045 30.4935 28.4622 28.4954 28.4622C26.4631 28.4622 24.7039 27.5752 23.8413 26.2837" stroke="#00435B" stroke-width="2" stroke-miterlimit="10" stroke-linecap="round" stroke-linejoin="round"/>
<path d="M13.7239 43.5113C15.0251 41.6496 17.5885 40.3826 20.5419 40.3826C23.5439 40.3826 26.1463 41.6935 27.4232 43.6088" stroke="#00435B" stroke-width="2" stroke-miterlimit="10" stroke-linecap="round" stroke-linejoin="round"/>
<path d="M36.1711 15.0063C31.1611 16.7949 25.927 17.7014 20.5711 17.7014C15.2151 17.7014 9.98097 16.7949 4.97103 15.0063C4.8102 15.8348 4.6445 16.7511 4.48368 17.7404C4.39596 18.2814 4.32287 18.8174 4.25464 19.3583C8.65539 21.298 14.3476 22.4726 20.5711 22.4726C26.7945 22.4726 32.4867 21.298 36.8875 19.3583C36.8192 18.8223 36.7461 18.2814 36.6584 17.7404C36.4976 16.7511 36.3319 15.8348 36.1711 15.0063Z" fill="#FFB734"/>
</svg>
