<svg width="69" height="74" viewBox="0 0 69 74" fill="none" xmlns="http://www.w3.org/2000/svg">
<path d="M41.5327 37.158H45.0575" stroke="#00435B" stroke-width="2" stroke-miterlimit="10" stroke-linecap="round" stroke-linejoin="round"/>
<path d="M41.5327 40.1487H45.0575" stroke="#00435B" stroke-width="2" stroke-miterlimit="10" stroke-linecap="round" stroke-linejoin="round"/>
<path d="M41.0042 58.5847H44.4636" stroke="#00435B" stroke-width="2" stroke-miterlimit="10" stroke-linecap="round" stroke-linejoin="round"/>
<path d="M41.0042 61.5156H44.4636" stroke="#00435B" stroke-width="2" stroke-miterlimit="10" stroke-linecap="round" stroke-linejoin="round"/>
<path d="M14.0258 36.5806C13.8569 35.6109 14.5217 34.5757 15.4587 34.3033C16.2759 34.069 17.2237 34.4233 17.6814 35.137C18.0409 35.6927 18.101 36.4117 17.9212 37.0491C17.1639 39.7349 13.2577 40.1653 12.8491 43.0418C14.8322 43.0527 16.8097 43.0583 18.7928 43.0692" stroke="#00435B" stroke-width="2" stroke-miterlimit="10" stroke-linecap="round" stroke-linejoin="round"/>
<path d="M33.0448 36.5806C32.8759 35.6109 33.5405 34.5757 34.4775 34.3033C35.2947 34.069 36.2427 34.4233 36.7003 35.137C37.0599 35.6927 37.1198 36.4117 36.94 37.0491C36.1827 39.7349 32.2765 40.1653 31.8679 43.0418C33.851 43.0527 35.8287 43.0583 37.8117 43.0692" stroke="#00435B" stroke-width="2" stroke-miterlimit="10" stroke-linecap="round" stroke-linejoin="round"/>
<path d="M35.5725 64.7464V55.354L32.0586 57.3698" stroke="#00435B" stroke-width="2" stroke-miterlimit="10" stroke-linecap="round" stroke-linejoin="round"/>
<path d="M13.187 57.9309C13.187 56.509 14.342 55.354 15.7639 55.354C17.1858 55.354 18.3409 56.509 18.3409 57.9309C18.3409 59.3528 17.1858 60.5077 15.7639 60.5077" stroke="#00435B" stroke-width="2" stroke-miterlimit="10" stroke-linecap="round" stroke-linejoin="round"/>
<path d="M15.7639 60.5078C17.1858 60.5078 18.3409 61.6628 18.3409 63.0847C18.3409 64.5066 17.1858 65.6615 15.7639 65.6615C14.342 65.6615 13.187 64.5066 13.187 63.0847" stroke="#00435B" stroke-width="2" stroke-miterlimit="10" stroke-linecap="round" stroke-linejoin="round"/>
<path d="M48.5986 57.9309C48.5986 56.509 49.7536 55.354 51.1755 55.354C52.5974 55.354 53.7525 56.509 53.7525 57.9309C53.7525 59.3528 52.5974 60.5077 51.1755 60.5077" stroke="#00435B" stroke-width="2" stroke-miterlimit="10" stroke-linecap="round" stroke-linejoin="round"/>
<path d="M51.1755 60.5078C52.5974 60.5078 53.7525 61.6628 53.7525 63.0847C53.7525 64.5066 52.5974 65.6615 51.1755 65.6615C49.7536 65.6615 48.5986 64.5066 48.5986 63.0847" stroke="#00435B" stroke-width="2" stroke-miterlimit="10" stroke-linecap="round" stroke-linejoin="round"/>
<path d="M49.2739 33.6006V40.2578H53.7522" stroke="#00435B" stroke-width="2" stroke-miterlimit="10" stroke-linecap="round" stroke-linejoin="round"/>
<path d="M53.7524 36.3247V43.5813" stroke="#00435B" stroke-width="2" stroke-miterlimit="10" stroke-linecap="round" stroke-linejoin="round"/>
<path d="M61.9676 28.1252V73H6.89453V28.1252" stroke="#00435B" stroke-width="2" stroke-miterlimit="10" stroke-linecap="round" stroke-linejoin="round"/>
<path d="M23.3474 36.0955L28.4575 41.2111" stroke="#00435B" stroke-width="2" stroke-miterlimit="10" stroke-linecap="round" stroke-linejoin="round"/>
<path d="M28.4575 36.0955L23.3474 41.2111" stroke="#00435B" stroke-width="2" stroke-miterlimit="10" stroke-linecap="round" stroke-linejoin="round"/>
<path d="M23.1514 57.9963L28.1689 63.0139" stroke="#00435B" stroke-width="2" stroke-miterlimit="10" stroke-linecap="round" stroke-linejoin="round"/>
<path d="M28.1689 57.9963L23.1514 63.0139" stroke="#00435B" stroke-width="2" stroke-miterlimit="10" stroke-linecap="round" stroke-linejoin="round"/>
<path d="M64.5121 28.1253H4.35043C2.49813 28.1253 1 26.6271 1 24.7748V20.2367C1 18.3844 2.49813 16.8862 4.35043 16.8862H64.5121C66.3644 16.8862 67.8625 18.3844 67.8625 20.2367V24.7748C67.8625 26.6271 66.3644 28.1253 64.5121 28.1253Z" stroke="#00435B" stroke-width="2" stroke-miterlimit="10" stroke-linecap="round" stroke-linejoin="round"/>
<path d="M61.9676 16.8863L33.8127 1L6.89453 16.8863" stroke="#00435B" stroke-width="2" stroke-miterlimit="10" stroke-linecap="round" stroke-linejoin="round"/>
<path d="M33.8401 6.72032C34.2915 6.72032 34.6573 6.35445 34.6573 5.90313C34.6573 5.45181 34.2915 5.08594 33.8401 5.08594C33.3888 5.08594 33.0229 5.45181 33.0229 5.90313C33.0229 6.35445 33.3888 6.72032 33.8401 6.72032Z" stroke="#00435B" stroke-width="2" stroke-miterlimit="10" stroke-linecap="round" stroke-linejoin="round"/>
<path d="M4.35046 24.8565C4.30688 24.8565 4.2688 24.8185 4.2688 24.7749V20.2367C4.2688 20.1931 4.30688 20.155 4.35046 20.155H64.5121C64.5557 20.155 64.5938 20.1931 64.5938 20.2367V24.7749C64.5938 24.8185 64.5557 24.8565 64.5121 24.8565H4.35046Z" fill="#FFB734"/>
</svg>
