<svg width="54" height="74" viewBox="0 0 54 74" fill="none" xmlns="http://www.w3.org/2000/svg">
<path d="M15.6436 13.2881C15.3366 4.52142 21.9901 3.12767 25.8267 2.62531C26.9505 2.47755 30.698 2.04412 33.2723 1C33.2723 1 33.9406 2.54154 33.9357 4.1816C33.9357 4.1816 37.1535 4.24072 40.8366 2.23127C40.8663 3.90581 40.9109 7.2745 40.2327 8.80621C39.5545 10.3379 38.302 11.6825 36.6931 12.1701C35.6584 12.4853 34.5495 12.436 33.4752 12.2932C31.3168 12.0076 29.2228 11.3673 27.0842 10.9585C24.9455 10.5498 22.698 10.3724 20.6188 11.0077" stroke="#00435B" stroke-width="2" stroke-miterlimit="10" stroke-linecap="round" stroke-linejoin="round"/>
<path d="M24.2823 47.3894L20.9753 66.1492L27.0001 72.9999L33.0298 66.1492L29.7179 47.3894" stroke="#00435B" stroke-width="2" stroke-miterlimit="10" stroke-linecap="round" stroke-linejoin="round"/>
<path d="M17.1485 66.1493H1L2.99011 53.4524C3.81684 49.3449 7.14356 46.6754 9.65841 46.1287C9.66832 46.1287 15.6584 44.6512 15.6584 44.6512C18.7079 43.9764 21.0148 41.4155 21.2228 38.3176C21.2475 37.958 21.2574 37.5837 21.2475 37.1897" stroke="#00435B" stroke-width="2" stroke-miterlimit="10" stroke-linecap="round" stroke-linejoin="round"/>
<path d="M36.8516 66.1493H53.0001L51.01 53.4524C50.1832 49.3449 46.8565 46.6754 44.3417 46.1287C44.3318 46.1287 38.3417 44.6512 38.3417 44.6512C35.2922 43.9764 32.9852 41.4155 32.7773 38.3176C32.7526 37.958 32.7427 37.5837 32.7526 37.1897" stroke="#00435B" stroke-width="2" stroke-miterlimit="10" stroke-linecap="round" stroke-linejoin="round"/>
<path d="M35.8218 21.8824V23.3649C35.8218 23.7096 35.5446 23.9854 35.1981 23.9854H29.8516C29.505 23.9854 29.2278 23.7096 29.2278 23.3649V20.4049C29.2278 20.0601 29.505 19.7843 29.8516 19.7843H35.1981L39.401 18.1147" stroke="#00435B" stroke-width="2" stroke-miterlimit="10" stroke-linecap="round" stroke-linejoin="round"/>
<path d="M18.1783 21.8824V23.3649C18.1783 23.7096 18.4556 23.9854 18.8021 23.9854H24.1486C24.4952 23.9854 24.7724 23.7096 24.7724 23.3649V20.4049C24.7724 20.0601 24.4952 19.7843 24.1486 19.7843H18.8021L14.5991 18.1147" stroke="#00435B" stroke-width="2" stroke-miterlimit="10" stroke-linecap="round" stroke-linejoin="round"/>
<path d="M24.7773 21.8823H29.2229" stroke="#00435B" stroke-width="2" stroke-miterlimit="10" stroke-linecap="round" stroke-linejoin="round"/>
<path d="M32.01 43.2771L27.0001 45.8874L21.9902 43.2771" stroke="#00435B" stroke-width="2" stroke-miterlimit="10" stroke-linecap="round" stroke-linejoin="round"/>
<path d="M38.6683 13.9628C39.3168 16.317 39.5693 19.016 39.5693 21.8824C39.5693 31.0775 33.9406 38.5342 27 38.5342C20.0594 38.5342 14.4307 31.0775 14.4307 21.8824C14.4307 18.7401 14.7921 15.7999 15.6435 13.2881" stroke="#00435B" stroke-width="2" stroke-miterlimit="10" stroke-linecap="round" stroke-linejoin="round"/>
<path d="M24.9058 60.968L24.1484 65.2676L27.0049 68.5132L29.8613 65.2676L29.1039 60.968C28.4405 61.2389 27.7376 61.3816 27.0049 61.3816C26.2673 61.3816 25.5643 61.234 24.9058 60.968Z" fill="#FFB734"/>
</svg>
