<svg width="68" height="74" viewBox="0 0 68 74" fill="none" xmlns="http://www.w3.org/2000/svg">
<path d="M4.54224 73L9.54 60.0061" stroke="#00435B" stroke-width="2" stroke-miterlimit="10" stroke-linecap="round" stroke-linejoin="round"/>
<path d="M14.5378 73L9.54004 60.0061" stroke="#00435B" stroke-width="2" stroke-miterlimit="10" stroke-linecap="round" stroke-linejoin="round"/>
<path d="M6.45337 68.0298H12.6265" stroke="#00435B" stroke-width="2" stroke-miterlimit="10" stroke-linecap="round" stroke-linejoin="round"/>
<path d="M57.6553 60.0061V73" stroke="#00435B" stroke-width="2" stroke-miterlimit="10" stroke-linecap="round" stroke-linejoin="round"/>
<path d="M57.6553 60.0061H60.5716C62.3674 60.0061 63.8174 61.4613 63.8174 63.2517C63.8174 65.0476 62.3619 66.4975 60.5716 66.4975H57.6553" stroke="#00435B" stroke-width="2" stroke-miterlimit="10" stroke-linecap="round" stroke-linejoin="round"/>
<path d="M60.5716 66.5029C62.3674 66.5029 63.8174 67.9584 63.8174 69.7488C63.8174 71.5447 62.3619 72.9946 60.5716 72.9946H57.6553" stroke="#00435B" stroke-width="2" stroke-miterlimit="10" stroke-linecap="round" stroke-linejoin="round"/>
<path d="M37.45 9.38091V10.7813C37.45 12.5552 36.0111 13.9941 34.2371 13.9941H33.117C31.4584 13.9941 30.1074 12.6486 30.1074 10.9845V4.0096C30.1074 2.34553 31.4529 1 33.117 1H34.2371C36.0111 1 37.45 2.43895 37.45 4.21287V5.10263" stroke="#00435B" stroke-width="2" stroke-miterlimit="10" stroke-linecap="round" stroke-linejoin="round"/>
<path d="M66.8928 39.4497C66.8928 39.4497 61.1042 35.5942 55.387 26.6642C55.387 26.6642 46.4515 12.0831 33.9463 22.2323C21.441 12.0831 12.5056 26.6642 12.5056 26.6642C6.78839 35.5997 1 39.4497 1 39.4497" stroke="#00435B" stroke-width="2" stroke-miterlimit="10" stroke-linecap="round" stroke-linejoin="round"/>
<path d="M60.7417 39.8174C57.2049 39.3177 51.3668 37.7086 48.1705 34.1608C48.1705 34.1608 42.2723 27.5869 33.9519 31.4478C25.6261 27.5869 19.7275 34.1608 19.7275 34.1608C16.3938 37.8624 10.7922 39.3781 7.15649 39.8174" stroke="#00435B" stroke-width="2" stroke-miterlimit="10" stroke-linecap="round" stroke-linejoin="round"/>
<path d="M18.0799 57.573C15.2021 55.7717 12.7307 53.3661 10.7317 50.5871C6.10191 44.145 1 39.4438 1 39.4438" stroke="#00435B" stroke-width="2" stroke-miterlimit="10" stroke-linecap="round" stroke-linejoin="round"/>
<path d="M66.8928 39.4495C66.8928 39.4495 61.7852 44.1506 57.1609 50.5927C55.1783 53.3497 52.7289 55.7388 49.884 57.5347" stroke="#00435B" stroke-width="2" stroke-miterlimit="10" stroke-linecap="round" stroke-linejoin="round"/>
<path d="M17.5693 45.1171C16.1908 44.5295 14.7629 43.81 13.291 42.9423C9.80359 40.8938 7.15649 39.8174 7.15649 39.8174" stroke="#00435B" stroke-width="2" stroke-miterlimit="10" stroke-linecap="round" stroke-linejoin="round"/>
<path d="M60.7417 39.8174C60.7417 39.8174 58.0891 40.8938 54.6072 42.9423C53.2452 43.7441 51.927 44.4141 50.6418 44.9798" stroke="#00435B" stroke-width="2" stroke-miterlimit="10" stroke-linecap="round" stroke-linejoin="round"/>
<path d="M33.9463 41.0533C37.4447 38.7521 40.3117 38.829 42.4645 39.7023C45.3698 40.883 47.2314 43.7223 47.462 46.8472C48.2419 57.5785 44.1615 65.3937 44.1615 65.3937C40.6631 72.8078 33.9463 72.8078 33.9463 72.8078C33.9463 72.8078 27.2296 72.8078 23.7312 65.3937C23.7312 65.3937 19.6508 57.5785 20.4306 46.8472C20.6613 43.7223 22.5231 40.8775 25.4284 39.7023C27.5812 38.829 30.4479 38.7521 33.9463 41.0533Z" stroke="#00435B" stroke-width="2" stroke-miterlimit="10" stroke-linecap="round" stroke-linejoin="round"/>
<path d="M33.9463 41.0532V59.38" stroke="#00435B" stroke-width="2" stroke-miterlimit="10" stroke-linecap="round" stroke-linejoin="round"/>
<path d="M33.9464 63.2573C30.5139 63.2573 27.345 61.5218 24.7913 58.5891C25.637 61.8568 26.642 63.8447 26.6585 63.8832L26.6858 63.9328L26.7135 63.9931C29.1684 69.1941 33.606 69.5016 33.93 69.5181C34.3529 69.4961 38.7408 69.1666 41.1793 63.9931L41.2069 63.9328L41.2396 63.8722C41.2561 63.8392 42.2557 61.8514 43.1015 58.5891C40.5477 61.5163 37.3789 63.2573 33.9464 63.2573Z" fill="#FFB734"/>
</svg>
