<svg width="74" height="73" viewBox="0 0 74 73" fill="none" xmlns="http://www.w3.org/2000/svg">
<path d="M33.5555 71.2731C34.3141 68.919 34.2638 66.0016 33.7339 63.3853C33.4215 61.8512 32.2446 60.6351 30.7273 60.2558C29.3216 59.9043 27.8709 59.737 26.4261 59.7649C24.9311 59.7872 23.4362 60.0159 21.9468 59.8765C18.5216 59.5585 16.4185 57.2547 17.8689 53.6622C18.6276 51.9328 17.8298 50.8283 17.2775 49.8409C15.6542 46.9289 18.0363 46.2763 18.0754 44.2457C18.0921 43.342 17.3614 42.6223 16.4577 42.5275C15.1523 42.388 14.031 41.8303 13.3337 41.1163C12.7256 40.4971 12.6308 39.5375 13.0883 38.7956C19.0683 29.0668 17.8523 31.6273 19.9218 17.9212C21.2774 8.95663 31.2517 -1.68699 51.2169 1.61543C55.4063 2.30716 59.5842 3.5344 63.0931 5.92754C71.2264 11.4837 75.5999 23.1871 71.3436 36.804C68.9504 44.4576 63.6175 52.6636 65.252 61.1874L67.5727 70.7153" stroke="#00435B" stroke-width="2" stroke-miterlimit="10" stroke-linecap="round" stroke-linejoin="round"/>
<path d="M5.28977 57.4611C2.75159 55.8936 1 52.5968 1 48.7812C1 44.9711 2.74587 41.6742 5.28405 40.1067" stroke="#00435B" stroke-width="2" stroke-miterlimit="10" stroke-linecap="round" stroke-linejoin="round"/>
<path d="M9.51254 53.5003C8.12909 52.6468 7.18066 50.8562 7.18066 48.781C7.18066 46.7058 8.12909 44.915 9.51254 44.0615" stroke="#00435B" stroke-width="2" stroke-miterlimit="10" stroke-linecap="round" stroke-linejoin="round"/>
<path d="M61.2023 8.69999C58.5581 6.89258 55.1107 5.65974 50.6703 4.92339C39.837 3.13271 33.2598 5.88283 29.6562 8.50469C27.8822 9.79331 26.4095 11.3498 25.3105 13.0624C28.6464 11.651 32.1386 10.6245 35.72 10.0555C43.9426 8.75016 52.606 9.92172 59.9807 13.782C63.35 15.5448 66.418 17.882 69.0287 20.6489C67.8907 15.6618 65.2244 11.4502 61.2023 8.69999Z" fill="#FFB734"/>
</svg>
